<?xml version="1.0" encoding="UTF-8" standalone="no"?>
<svg
   viewBox="0 0 508.56002 665.80797"
   height="512.15997"
   width="391.20001"
   id="svg2"
   version="1.1"
   sodipodi:docname="20200510075310!Beşiktaş_Football_Club_logo.svg"
   inkscape:version="1.1 (c68e22c387, 2021-05-23)"
   xmlns:inkscape="http://www.inkscape.org/namespaces/inkscape"
   xmlns:sodipodi="http://sodipodi.sourceforge.net/DTD/sodipodi-0.dtd"
   xmlns="http://www.w3.org/2000/svg"
   xmlns:svg="http://www.w3.org/2000/svg"
   xmlns:rdf="http://www.w3.org/1999/02/22-rdf-syntax-ns#"
   xmlns:cc="http://creativecommons.org/ns#"
   xmlns:dc="http://purl.org/dc/elements/1.1/">
  <sodipodi:namedview
     id="namedview41"
     pagecolor="#ffffff"
     bordercolor="#666666"
     borderopacity="1.0"
     inkscape:pageshadow="2"
     inkscape:pageopacity="0.0"
     inkscape:pagecheckerboard="0"
     showgrid="false"
     inkscape:zoom="1.7045455"
     inkscape:cx="450.26664"
     inkscape:cy="294.79998"
     inkscape:window-width="2560"
     inkscape:window-height="1361"
     inkscape:window-x="-9"
     inkscape:window-y="-9"
     inkscape:window-maximized="1"
     inkscape:current-layer="svg2" />
  <metadata
     id="metadata8">
    <rdf:RDF>
      <cc:Work
         rdf:about="">
        <dc:format>image/svg+xml</dc:format>
        <dc:type
           rdf:resource="http://purl.org/dc/dcmitype/StillImage" />
        <dc:title />
      </cc:Work>
    </rdf:RDF>
  </metadata>
  <defs
     id="defs6">
    <clipPath
       id="clipPath20"
       clipPathUnits="userSpaceOnUse">
      <path
         id="path18"
         d="M 0,250 H 250 V 0 H 0 Z" />
    </clipPath>
  </defs>
  <g
     id="layer4" />
  <g
     transform="translate(0,-100.00001)"
     style="display:inline"
     id="layer1" />
  <g
     transform="matrix(2.8991112,0,0,-2.8991112,450.60816,249.44143)"
     id="g22">
    <path
       id="path24"
       style="fill:#ffffff;fill-opacity:1;fill-rule:nonzero;stroke:none"
       d="m 0,0 0.537,0.775 -0.779,0.532 c -2.859,1.947 -5.878,4.056 -8.625,6.559 -4.344,3.906 -7.876,8.44 -10.498,13.472 -1.758,3.364 -3.046,6.912 -4.319,10.556 l -0.46,1.316 -1.045,-0.924 c -3.768,-3.338 -8.039,-7.12 -13.676,-8.404 -3.803,-0.873 -7.922,-0.629 -13.149,0.782 -5.561,1.503 -10.713,2.233 -15.753,2.233 -5.035,0 -10.205,-0.73 -15.808,-2.233 -5.228,-1.411 -9.343,-1.656 -13.151,-0.781 -5.635,1.283 -9.905,5.065 -13.674,8.403 l -1.044,0.925 -0.461,-1.317 c -1.268,-3.636 -2.553,-7.178 -4.318,-10.557 -2.622,-5.03 -6.154,-9.564 -10.503,-13.476 -2.744,-2.5 -5.763,-4.609 -8.621,-6.554 L -136.126,0.775 -135.59,0 c 1.664,-2.403 3.142,-4.584 4.379,-6.955 4.954,-9.496 6.09,-18.239 3.575,-27.515 -0.612,-2.239 -1.382,-4.632 -2.572,-8 -1.778,-5.034 -3.085,-10.679 -3.783,-16.327 -1.238,-10.121 -1.575,-29.157 10.082,-42.934 7.056,-8.314 16.395,-13.086 25.427,-17.699 7.501,-3.841 14.201,-7.442 20.237,-12.627 3.836,-3.255 7.076,-6.882 9.739,-10.002 l 0.712,-0.834 0.712,0.834 c 2.666,3.122 5.908,6.753 9.743,10.006 6.034,5.182 12.734,8.782 20.232,12.623 9.033,4.614 18.373,9.386 25.428,17.7 11.655,13.773 11.319,32.811 10.082,42.934 -0.697,5.638 -2.006,11.284 -3.783,16.327 -1.171,3.309 -1.965,5.777 -2.572,7.997 -2.512,9.285 -1.377,18.029 3.574,27.517 C -3.147,-4.598 -1.667,-2.411 0,0" />
  </g>
  <g
     transform="matrix(2.8991112,0,0,-2.8991112,254.06611,650.85932)"
     id="g26">
    <path
       id="path28"
       style="fill:#000000;fill-opacity:1;fill-rule:nonzero;stroke:none"
       d="m 0,0 c -5.384,6.285 -11.34,11.427 -18.438,15.69 -12.065,7.252 -26.085,11.846 -35.469,22.899 -5.757,6.79 -8.724,15.647 -9.669,24.877 -1.098,10.899 0.616,22.327 3.89,31.577 2.043,5.847 3.604,10.747 4.044,15.779 0.636,7.692 -1.692,15.274 -5.209,22.02 -1.032,1.978 -2.198,3.824 -3.45,5.648 5.186,3.516 9.78,7.493 13.624,12.46 3.737,4.813 6.308,10 8.33,15.713 8.659,-7.604 16.283,-9.296 27.316,-6.33 11.119,3.011 18.942,3.011 30.063,0 11.031,-2.966 18.656,-1.274 27.314,6.33 2.022,-5.713 4.594,-10.9 8.33,-15.713 3.844,-4.967 8.438,-8.944 13.623,-12.46 -1.252,-1.824 -2.416,-3.67 -3.449,-5.648 -3.516,-6.746 -5.867,-14.328 -5.208,-22.02 0.44,-5.032 2,-9.932 4.044,-15.779 3.273,-9.25 4.987,-20.678 3.867,-31.577 C 62.63,54.236 59.663,45.379 53.905,38.589 44.522,27.536 30.501,22.942 18.437,15.69 11.34,11.427 5.383,6.285 0,0" />
  </g>
  <g
     transform="matrix(2.8991112,0,0,-2.8991112,313.63386,596.64275)"
     id="g30">
    <path
       id="path32"
       style="fill:#ffffff;fill-opacity:1;fill-rule:nonzero;stroke:none"
       d="M 0,0 C 6.966,3.89 14.416,7.142 21.096,11.472 V 145.303 C 14.416,139.72 7.713,137.984 0,138.951 V 90.604 c -0.791,1.276 -1.473,2.704 -2.109,4.331 -3.978,-3.187 -6.878,-4.088 -11.846,-2.879 -4.835,1.186 -8.35,1.186 -13.186,0 -4.965,-1.209 -7.866,-0.308 -11.844,2.879 -0.637,-1.627 -1.318,-3.055 -2.11,-4.331 v 48.347 c -7.714,-0.967 -14.416,0.792 -21.095,6.352 V 11.472 C -55.511,7.142 -48.061,3.89 -41.095,0 v 40.896 c 3.759,-2.659 8.284,-4.197 12.35,-6.417 3.188,-1.735 5.714,-3.845 8.198,-6.46 2.484,2.615 5.01,4.725 8.197,6.46 4.065,2.22 8.591,3.758 12.35,6.417 z" />
  </g>
  <g
     style="fill:#e61c27;fill-opacity:1"
     transform="matrix(2.8991112,0,0,-2.8991112,254.06611,507.25852)"
     id="g34">
    <path
       id="path36"
       style="fill:#e10101;fill-opacity:1;fill-rule:nonzero;stroke:none"
       d="m 0,0 c 2.153,2.131 4.592,3.912 7.273,5.361 4.968,2.704 10.944,4.44 14.877,8.659 2.287,2.44 3.451,5.626 3.824,8.966 0.44,4.043 -0.262,8.285 -1.581,11.691 -1.869,4.857 -2.681,8.527 -0.572,13.515 0.528,1.231 1.165,2.417 1.912,3.516 -3.495,2.352 -6.373,5.45 -8.13,9.295 -3.604,-2.504 -7.297,-2.679 -11.472,-1.669 -4.506,1.099 -7.757,1.099 -12.262,0 -4.176,-1.01 -7.868,-0.813 -11.472,1.669 -1.758,-3.845 -4.637,-6.943 -8.131,-9.295 0.747,-1.099 1.383,-2.285 1.912,-3.516 2.109,-4.988 1.297,-8.658 -0.572,-13.515 -1.318,-3.406 -2.021,-7.648 -1.582,-11.691 0.373,-3.34 1.539,-6.526 3.824,-8.966 3.934,-4.219 9.911,-5.955 14.878,-8.659 C -4.593,3.912 -2.154,2.131 0,0" />
  </g>
  <g
     transform="matrix(2.8991112,0,0,-2.8991112,254.06611,391.17955)"
     id="g38">
    <path
       id="path40"
       style="fill:#ffffff;fill-opacity:1;fill-rule:nonzero;stroke:none"
       d="m 0,0 1.625,5.076 h 5.34 L 2.636,8.197 4.306,13.273 0,10.13 -4.308,13.273 -2.638,8.197 -6.967,5.076 h 5.341 z" />
  </g>
  <g
     transform="matrix(2.8991112,0,0,-2.8991112,286.36685,384.68206)"
     id="g42">
    <path
       id="path44"
       style="fill:#ffffff;fill-opacity:1;fill-rule:nonzero;stroke:none"
       d="m 0,0 c 3.867,-3.187 6.329,-7.955 6.329,-13.273 0,-9.516 -7.868,-17.273 -17.471,-17.273 -9.604,0 -17.47,7.757 -17.47,17.273 0,5.318 2.461,10.086 6.328,13.273 -1.516,-2.197 -2.396,-4.812 -2.396,-7.67 0,-7.427 6.089,-13.515 13.538,-13.515 7.45,0 13.538,6.088 13.538,13.515 0,2.858 -0.88,5.494 -2.396,7.67" />
  </g>
  <g
     transform="matrix(2.8991112,0,0,-2.8991112,280.37612,521.65927)"
     id="g46">
    <path
       id="path48"
       style="fill:#ffffff;fill-opacity:1;fill-rule:nonzero;stroke:none"
       d="m 0,0 c -1.625,0 -2.944,-3.581 -2.944,-7.976 0,-4.395 1.319,-7.978 2.944,-7.978 1.604,0 2.923,3.583 2.923,7.978 C 2.923,-3.581 1.604,0 0,0 m 0,2.022 c 4.593,0 8.35,-4.483 8.35,-9.998 0,-5.516 -3.757,-9.999 -8.35,-9.999 -4.615,0 -8.373,4.483 -8.373,9.999 0,5.515 3.758,9.998 8.373,9.998" />
  </g>
  <g
     style="fill:#000000;fill-opacity:1"
     transform="matrix(2.8991112,0,0,-2.8991112,328.0952,550.64342)"
     id="g50">
    <path
       id="path52"
       style="fill:#000000;fill-opacity:1;fill-rule:nonzero;stroke:none"
       d="m 0,0 c 2.57,-0.044 3.78,-3.231 1.714,-4.527 0,-1.363 2.088,-1.737 3.473,-1.1 1.449,0.748 2.021,2.439 1.757,3.956 C 6.439,1.296 4.22,1.296 1.802,1.427 V 3.01 c 2.307,0.044 4.439,0 4.9,2.835 C 7.076,8.109 5.758,10.13 3.429,10.064 2.504,10.021 1.691,9.646 1.648,8.855 3.692,7.625 2.66,4.262 0.11,4.218 c -2.198,0 -3.099,2.22 -2.571,3.956 0.768,2.505 3.911,3.89 6.373,3.868 2.813,0.044 6.987,-1.472 7.559,-4.571 C 11.845,5.45 10.351,3.427 7.846,2.329 10.306,1.56 12.021,-0.66 11.669,-2.879 11.098,-6.109 6.878,-8.044 4.022,-8 1.517,-8.021 -1.67,-6.593 -2.461,-4 -2.989,-2.198 -2.22,0 0,0" />
  </g>
  <g
     transform="matrix(2.8991112,0,0,-2.8991112,221.51054,564.27823)"
     id="g54">
    <path
       id="path56"
       style="fill:#ffffff;fill-opacity:1;fill-rule:nonzero;stroke:none"
       d="M 0,0 C 0.417,0.659 0.351,2 -0.044,2.768 -0.506,3.67 -1.473,4.197 -2.945,4.131 -5.979,3.977 -6.461,0.549 -4.527,-1.297 c 1.406,-1.362 3.824,-2.021 5.405,-1.977 4.528,0 8.22,4.482 8.22,9.999 0,5.514 -3.692,9.998 -8.22,9.998 C -0.945,16.767 -2.88,16.196 -4.264,14.921 -6.66,12.679 -7.077,8.351 -4.175,6.286 -2.066,4.791 1.23,4.636 3.669,6.175 3.757,2.286 2.482,-1.209 0.878,-1.253 0.131,-1.253 -0.023,-0.769 0,0 m 0.878,14.701 c 3.056,0 3.121,-7.405 0,-7.405 -3.231,0 -2.966,7.405 0,7.405" />
  </g>
  <g
     style="fill:#000000;fill-opacity:1"
     transform="matrix(2.8991112,0,0,-2.8991112,186.27822,572.55926)"
     id="g58">
    <path
       id="path60"
       style="fill:#000000;fill-opacity:1;fill-rule:nonzero;stroke:none"
       d="M 0,0 H -9.098 L -9.23,1.098 -6.9,2.945 V 13.91 h -3.297 v 2.022 c 1.802,0.681 3.56,1.252 5.582,3.231 h 2.439 V 2.945 l 2.33,-1.847 z" />
  </g>
  <g
     style="fill:#000000;fill-opacity:1"
     transform="matrix(2.8991112,0,0,-2.8991112,159.45709,295.61499)"
     id="g62">
    <path
       id="path64"
       style="fill:#000000;fill-opacity:1;fill-rule:nonzero;stroke:none"
       d="M 0,0 C 2.087,-0.33 4.284,0.109 4.877,2.438 5.384,4.307 5.251,7.604 4.658,9.471 4.197,10.9 3.274,11.932 1.451,11.932 L -0.726,11.91 V 0.989 C -0.681,0.285 -0.44,0.044 0,0 m -0.726,24.107 v -9.669 h 1.869 c 2.527,0 2.945,2.681 2.922,5.252 -0.022,1.89 0.264,3.934 -1.231,4.835 -0.482,0.286 -1.428,0.417 -2.198,0.461 -0.769,0.044 -1.362,-0.044 -1.362,-0.879 M -1.604,-1.934 c -2.857,0.528 -6.11,-0.242 -6.682,-0.483 0.287,0.813 0.748,0.989 1.342,1.45 0.395,0.33 0.483,0.79 0.57,2.462 v 10.767 12.086 c 0,0.989 -0.636,1.869 -1.34,2.506 H 2.704 c 2.218,0 3.559,-0.286 5.119,-2.11 2.198,-2.593 2.813,-6.505 0.659,-9.427 C 7.69,14.218 6.417,13.448 4.791,13.163 6.658,12.965 8.307,11.801 9.536,10.263 12.812,6.242 11.361,-0.307 6.351,-2.043 3.977,-2.879 0.834,-2.176 -1.604,-1.934" />
  </g>
  <g
     transform="matrix(2.8991112,0,0,-2.8991112,238.20159,218.01564)"
     id="g66">
    <path
       id="path68"
       style="fill:#ffffff;fill-opacity:1;fill-rule:nonzero;stroke:none"
       d="m 0,0 h 13.69 c -0.724,-0.638 -1.34,-1.429 -1.34,-2.418 v -12.086 -11.867 c 0.066,-1.56 0.087,-2.11 0.418,-2.417 -0.55,0.131 -1.099,0.131 -1.714,-0.132 -3.956,-1.187 -8.615,-2.395 -12.658,-0.901 -1.671,0.638 -3.34,1.691 -4.352,3.253 -1.78,2.812 -1.121,7.493 2.967,7.163 1.539,-0.133 2.966,-1.077 2.966,-2.702 0.088,-1.869 -1.384,-2.924 -3.273,-2.704 -0.023,0 -0.045,-0.198 -0.066,-0.198 0.24,-1.999 2.132,-2.878 4.021,-3.23 2.682,-0.506 5.56,0.132 5.56,2.395 v 23.909 c -1.253,0.243 -3.054,0.331 -4.154,0 C 0.615,-2.375 -0.11,-2.857 -1.23,-2.549 -0.593,-1.781 -0.176,-1.078 0,0" />
  </g>
  <g
     style="fill:#000000;fill-opacity:1"
     transform="matrix(2.8991112,0,0,-2.8991112,336.31563,252.03903)"
     id="g70">
    <path
       id="path72"
       style="fill:#000000;fill-opacity:1;fill-rule:nonzero;stroke:none"
       d="m 0,0 4.724,8.153 c 0.88,1.516 0.527,2.329 -0.769,3.583 h 7.253 C 9.581,10.768 8.635,10.021 7.669,8.439 L 2.153,-0.593 c 3.911,0.418 5.978,-2.308 6.922,-7.318 0.593,-3.143 0.637,-7.339 3.473,-9.449 H 9.119 C 2,-17.756 6.988,-2.527 0,-2.527 v -0.242 -10.767 c 0.066,-1.672 0.153,-2.132 0.57,-2.462 0.594,-0.461 1.099,-0.637 1.385,-1.449 -2.241,0.46 -6.879,0.592 -9.208,-0.089 0.286,0.813 0.616,1.252 1.232,1.714 0.395,0.307 0.482,0.614 0.571,2.286 V -2.769 9.317 c 0,0.99 -0.638,1.781 -1.363,2.419 H 1.34 C 0.614,11.098 0,10.307 0,9.317 Z" />
  </g>
  <g
     style="fill:#000000;fill-opacity:1;stroke:#ffffff;stroke-width:1.37475002;stroke-miterlimit:4;stroke-dasharray:none;stroke-opacity:1"
     transform="matrix(2.8991112,0,0,-2.8991112,392.77825,85.959671)"
     id="g1052">
    <path
       id="path1050"
       style="fill:#000000;fill-opacity:1;fill-rule:nonzero;stroke:#ffffff;stroke-width:1.37475002;stroke-miterlimit:4;stroke-dasharray:none;stroke-opacity:1"
       d="M 0,0 H -12.717 L -17.021,12.245 -21.323,0 h -12.718 l 10.144,-7.764 -3.759,-12.207 10.635,7.246 10.635,-7.246 -3.757,12.207 z" />
  </g>
  <g
     id="g1056"
     transform="matrix(2.8991112,0,0,-2.8991112,213.37825,85.959671)"
     style="fill:#000000;fill-opacity:1;stroke:#ffffff;stroke-width:1.37475002;stroke-miterlimit:4;stroke-dasharray:none;stroke-opacity:1">
    <path
       d="M 0,0 H -12.717 L -17.021,12.245 -21.323,0 h -12.718 l 10.144,-7.764 -3.759,-12.207 10.635,7.246 10.635,-7.246 -3.757,12.207 z"
       style="fill:#000000;fill-opacity:1;fill-rule:nonzero;stroke:#ffffff;stroke-width:1.37475002;stroke-miterlimit:4;stroke-dasharray:none;stroke-opacity:1"
       id="path1054" />
  </g>
  <g
     style="fill:#000000;fill-opacity:1;stroke:#ffffff;stroke-width:1.37475002;stroke-miterlimit:4;stroke-dasharray:none;stroke-opacity:1"
     transform="matrix(2.8991112,0,0,-2.8991112,304.37825,57.359671)"
     id="g1060">
    <path
       id="path1058"
       style="fill:#000000;fill-opacity:1;fill-rule:nonzero;stroke:#ffffff;stroke-width:1.37475002;stroke-miterlimit:4;stroke-dasharray:none;stroke-opacity:1"
       d="M 0,0 H -12.717 L -17.021,12.245 -21.323,0 h -12.718 l 10.144,-7.764 -3.759,-12.207 10.635,7.246 10.635,-7.246 -3.757,12.207 z" />
  </g>
</svg>