<?xml version="1.0" encoding="utf-8"?>
<!-- Generator: Adobe Illustrator 14.0.0, SVG Export Plug-In . SVG Version: 6.00 Build 43363)  -->
<!DOCTYPE svg PUBLIC "-//W3C//DTD SVG 1.1//EN" "http://www.w3.org/Graphics/SVG/1.1/DTD/svg11.dtd">
<svg version="1.1" id="katman_1" xmlns="http://www.w3.org/2000/svg" xmlns:xlink="http://www.w3.org/1999/xlink" x="0px" y="0px"
	 width="316px" height="316px" viewBox="0 0 600 600" enable-background="new 0 0 600 600" xml:space="preserve">
<path fill="#3E4549" d="M300.953,600.6c165.428,0,300.3-134.872,300.3-300.3c0-165.333-134.872-300.3-300.3-300.3
	C135.62,0,0.747,134.966,0.747,300.3C0.747,465.727,135.62,600.6,300.953,600.6L300.953,600.6z"/>
<path fill="#FFFFFF" d="M300.953,591.472c160.395,0,291.173-130.868,291.173-291.172c0-160.303-130.778-291.079-291.173-291.079
	C140.652,9.221,9.875,139.996,9.875,300.3C9.875,460.604,140.652,591.472,300.953,591.472L300.953,591.472z"/>
<path fill="#454545" d="M300.953,498.142c108.98,0,197.843-88.956,197.843-197.842c0-108.887-88.862-197.749-197.843-197.749
	c-108.886,0-197.746,88.86-197.746,197.749C103.208,409.186,192.067,498.142,300.953,498.142L300.953,498.142z"/>
<path fill="#E20025" d="M134.223,212.556c31.018-58.68,92.122-99.197,162.539-100.783c-20.864,28.039-46.759,53.186-76.471,71.445
	c-17.885,10.896-37.072,19.374-57.38,24.496C153.413,210.134,143.911,211.626,134.223,212.556L134.223,212.556z"/>
<path fill="#E20025" d="M273.754,486.961c-91.001-13.318-161.327-92.025-161.327-186.661c0-25.894,5.31-50.672,14.809-73.212
	c0.28,4.472,0.561,8.942,1.027,13.318c4.657,46.387,21.609,93.89,47.41,137.201C200.917,419.712,234.635,457.807,273.754,486.961
	L273.754,486.961z"/>
<path fill="#E20025" d="M474.763,227.088c9.503,22.54,14.808,47.318,14.808,73.212c0,94.636-70.322,173.343-161.324,186.661
	c39.12-29.154,72.84-67.249,98.08-109.354c26.175-43.868,43.221-92.119,47.597-139.063
	C474.297,234.726,474.576,230.906,474.763,227.088L474.763,227.088z"/>
<path fill="#E20025" d="M305.146,111.772c70.509,1.586,131.612,42.104,162.629,100.783c-8.009-0.744-16.019-1.954-24.031-3.725
	c-21.983-4.937-42.845-13.88-62.03-25.614C351.998,164.96,326.104,139.811,305.146,111.772L305.146,111.772z"/>
<path fill="#163962" d="M159.279,213.116h283.442c-22.45-5.029-43.688-14.158-63.245-26.175
	c-30.553-18.723-57.194-44.616-78.524-73.492c-21.236,28.876-47.783,54.771-78.428,73.492
	C202.966,198.958,181.729,208.087,159.279,213.116L159.279,213.116z"/>
<path fill="#163962" d="M204.269,318.835h-52.348c7.452,19.284,16.674,38.282,27.571,56.448
	c26.267,43.962,61.848,83.459,103.298,112.703c2.701,0.28,5.308,0.467,8.011,0.653c1.49-9.038,0.744-50.766,0.466-52.723
	c-1.864-2.142-3.726-3.442-5.868-4.284c-2.331-0.838-5.123-1.21-8.57-1.303c-3.259,0-5.96,0.28-8.569,0.837
	c-2.608,0.464-5.308,1.306-8.568,2.423c-2.982,0.932-5.403,1.863-8.012,1.863c-2.795,0-5.402-1.024-8.383-3.912
	c-0.558-0.467-1.023-0.931-1.583-1.491c-2.236-2.236-4.472-4.473-6.985-4.473c-3.076,0.094-5.869-0.278-8.383-1.024
	c-2.515-0.744-4.843-2.05-6.799-3.818c-4.379-4.192-4.379-10.06-4.285-14.812c0-2.046,0-3.727-0.373-4.472
	c-0.561-1.211-2.515-2.7-4.937-4.099c-2.609-1.582-5.589-3.073-7.918-4.098c-4.192-1.863-6.798-5.03-8.381-8.755
	c-1.399-3.54-1.864-7.732-1.771-11.738c0.094-1.77,0.094-3.446-0.187-4.936c-0.186-1.211-0.466-2.235-1.022-2.796l-0.093-0.091
	c-1.306-1.491-2.702-3.076-3.728-5.032c-1.116-2.046-1.86-4.469-1.86-7.355c0-2.517,0.744-4.659,1.954-6.242
	c1.493-1.955,3.634-3.076,5.59-3.076c4.657-0.183,9.221,4.286,12.109,7.27c0.279,0.184,0.466,0.464,0.743,0.65
	c1.305,1.398,2.89,2.886,4.472,4.099c1.583,1.116,3.169,2.049,4.75,2.423c3.167,0.743,5.684,0.649,7.825,0.556
	c0.093,0,0.187,0,0.374,0c3.818-0.093,6.611,0.374,8.94,1.863c2.33,1.398,4.006,3.635,5.683,7.172
	c1.862,3.727,3.354,3.727,6.055,3.727c0.931-0.093,1.863-0.093,2.98,0c6.054,0.281,7.544,3.074,9.967,7.636
	c0.373,0.748,0.744,1.493,1.21,2.143c0.932,1.68,1.77,2.981,2.702,4.1c0.838,0.934,1.583,1.585,2.236,2.049
	c1.023,0.561,1.956,0.748,3.074,1.024c1.863,0.374,4.005,0.842,7.359,2.984c2.049,1.305,3.445,3.166,4.47,5.305
	c0.932,2.051,1.492,4.289,1.956,6.522c1.027,4.472,1.77,8.476,3.354,11.457c1.489,2.89,3.819,5.122,8.102,6.709
	c0-0.468,0.094-0.935,0.094-1.587c0.744-13.97,1.024-22.82,0.28-28.687c-0.56-5.312-2.049-8.01-4.844-9.877
	c-8.568-5.959-17.511-11.921-25.709-17.322c-8.102-5.124-15.553-9.689-21.423-12.575c-1.022-0.187-2.141-0.37-3.26-0.464
	c-1.303-0.094-2.42-0.094-3.539-0.187c-0.466,0-0.747,0-1.118,0c-5.494-0.094-10.618-0.28-16.3-4.193
	c-3.353-2.329-5.773-5.032-7.078-8.008c-1.211-2.891-1.306-6.054,0.187-9.039c0.279-0.556,0.559-0.93,0.743-1.301
	c0.56-1.117,0.838-1.587-0.093-2.517c-1.49-1.399-3.073-3.261-4.098-5.31C204.548,319.579,204.362,319.209,204.269,318.835
	L204.269,318.835z"/>
<path fill="#163962" d="M279.717,318.835h-49.182c1.21,1.587,2.981,1.956,4.846,2.423c1.86,0.372,3.818,0.838,5.866,2.051
	c1.584,0.931,3.073,2.232,4.286,3.911c1.21,1.677,2.143,3.818,2.699,6.335c0.187,0.93,0.28,1.488,0.374,2.049
	c0.373,2.05,0.651,3.446,3.167,5.4c9.314,6.895,18.349,12.762,26.545,18.163c5.869,3.726,11.272,7.267,16.022,10.713l-0.093-0.093
	c0.093,0,0.187,0.093,0.279,0.093c0.094-1.023,0-2.329-0.186-3.724c-0.28-1.681-0.653-3.541-1.024-5.033
	c-6.986-8.383-11.365-14.158-13.971-19.094c-2.795-5.402-3.541-9.781-3.074-15.273c0.186-2.237,0.838-4.38,2.234-6.336
	C278.786,319.859,279.251,319.299,279.717,318.835L279.717,318.835z"/>
<path fill="#163962" d="M378.265,318.835H321.07c-0.833,1.024-1.675,2.049-2.513,2.887c1.862,2.144,3.167,4.193,4.098,6.242
	c1.307,2.703,1.771,5.215,1.771,7.731c-0.094,5.217-2.42,9.778-5.681,13.881c-2.887,3.817-6.521,7.078-9.965,9.965
	c-0.28,1.399-0.467,3.167-0.467,4.843c0,1.865,0.187,3.634,0.467,4.936c0.09,0,0.184,0.094,0.277,0.188c0.093,0,0.187,0,0.28,0
	c0.093,0,0.093,0,0.187-0.094h0.094c1.114-0.649,3.442-1.956,5.772-3.257c11.458-6.432,25.15-14.067,38.47-23.755
	c1.212-0.931,1.956-1.862,2.517-2.98c0.464-1.209,0.65-2.606,0.65-4.285c0.094-2.606,0.838-4.936,1.956-6.798
	c1.399-2.33,3.354-4.099,5.216-5.217c2.423-1.399,5.123-1.399,7.732-1.306c2.236,0,4.376,0.094,5.31-1.305
	C377.612,320.047,377.892,319.393,378.265,318.835L378.265,318.835z"/>
<path fill="#163962" d="M309.988,488.733c3.072-0.187,6.146-0.374,9.221-0.747c41.449-29.245,77.032-68.742,103.3-112.704
	c10.896-18.164,20.12-37.164,27.569-56.447H403.6c-0.464,1.024-1.023,1.956-1.582,2.794c-1.024,1.585-2.143,2.89-3.261,4.194
	c-1.862,2.234-1.955,5.307-1.955,8.287c0,5.776,0,11.456-9.222,15.091c-3.26,1.212-5.683,1.863-8.013,2.236
	c-2.326,0.467-4.472,0.467-7.358,0.557c-2.049,0.094-4.006,0.188-5.773,0.468c-1.772,0.276-3.354,0.743-4.939,1.769
	c-3.444,2.049-7.448,4.379-11.733,6.799c-12.016,6.896-26.456,15.277-33.16,21.146c-2.606,2.236-4.284,4.843-5.31,9.969
	c-1.023,5.492-1.21,13.88-0.837,27.569c0.093,1.675,0.093,2.235,0.093,2.235c0.184,0.091,1.212-0.467,2.42-1.023
	c2.24-1.117,4.846-2.983,6.896-4.847c1.862-1.675,3.163-3.162,3.35-3.911c0.094-0.467,0.28-1.489,0.468-2.606
	c1.211-5.867,2.979-14.718,7.732-17.791c2.329-1.583,4.842-1.956,7.448-2.329c1.681-0.188,3.354-0.464,4.753-1.024
	c0.65-0.188,1.306-1.862,2.049-3.818c1.77-4.659,3.912-10.339,11.552-10.619c0.93-0.094,1.862-0.094,2.793-0.094
	c3.54,0,6.428,0,8.382-3.911c1.771-3.541,3.258-5.684,5.403-7.082c2.143-1.489,4.749-1.862,8.57-1.769c0.37,0,0.743,0,1.021,0
	c2.796,0.094,8.293,0.279,11.18-0.371c2.143-0.467,2.793-1.211,3.817-2.423c0.562-0.65,1.122-1.306,1.956-2.143
	c0.374-0.37,0.748-0.743,1.118-1.117c2.419-2.513,4.472-4.655,8.851-4.563c1.489,0.092,3.257,0.278,4.842,1.118
	c1.863,1.021,3.168,2.793,3.168,5.961c0,1.769-0.748,4.004-1.77,6.146c-1.027,2.236-2.609,4.565-4.005,6.147l-0.093,0.094
	c-0.561,0.556-1.118,2.049-1.587,3.911c-0.557,2.329-0.93,4.936-0.836,6.708c0.092,4.006-0.094,7.636-1.212,10.803
	c-1.21,3.447-3.537,6.15-7.822,8.01c-1.585,0.746-3.354,1.305-4.936,1.865c-3.354,1.117-6.615,2.236-7.826,4.005
	c-0.468,0.65-0.65,2.888-0.931,5.404c-0.467,4.841-0.931,10.614-4.752,13.225c-1.957,1.399-4.283,2.049-6.893,2.419
	c-2.517,0.374-5.215,0.374-8.195,0.374c-1.306,0-2.609,0.65-4.006,1.492c-1.959,1.301-3.817,3.354-5.216,5.029
	c-5.589,6.798-10.151,4.749-15.835,2.236c-1.306-0.558-2.606-1.117-4.006-1.68c-2.143-0.649-4.378-1.395-6.798-1.862
	c-2.236-0.464-4.565-0.837-6.708-0.744c-3.541,0-6.615,0.28-9.222,1.118c-2.33,0.743-4.285,2.049-6.146,4.005
	c-0.561,3.538-0.467,33.066-0.374,39.213C309.243,479.882,309.43,484.262,309.988,488.733L309.988,488.733z"/>
<path fill="#FFED00" d="M470.665,217.586H131.337c0.372,31.95,7.079,64.736,18.907,96.871h52.906c0-0.188,0-0.276,0-0.37
	c0-0.934,0-1.863,0.187-2.703c0.465-2.609,1.676-4.566,3.352-5.866c1.678-1.307,3.727-1.862,5.963-1.862
	c0.93-0.099,1.862,0,2.795,0.187c2.049,0.369,4.098,0.93,6.053,2.049c1.956,1.115,3.727,2.699,5.123,4.933
	c0.84,1.4,1.397,2.517,1.862,3.634h51.697c-1.678-2.326-3.167-4.937-4.284-7.729c-1.679-4.102-2.61-8.476-2.236-13.041
	c0.186-2.516,1.024-4.844,2.515-6.986c1.118-1.677,2.7-3.352,4.657-4.937c-0.094-0.466-0.186-0.93-0.28-1.396
	c-1.956-8.196-4.47-18.907,10.712-28.875c0.279-5.589,1.023-9.873,2.793-13.227c1.957-3.818,4.842-6.426,9.408-8.103h1.49
	c4.565,1.677,7.821,4.564,9.781,8.755c1.862,3.726,2.514,8.475,2.14,14.159c13.042,12.575,8.382,22.449,5.775,27.756
	c1.677,1.77,3.167,3.819,4.286,6.054c1.676,3.262,2.61,6.708,2.794,9.315c0.279,4.47-1.118,9.408-3.261,13.88
	c-0.65,1.49-1.488,2.98-2.326,4.376h56.631c0.373-0.557,0.747-1.211,1.118-1.862c1.397-2.236,2.793-3.82,4.564-4.937
	c1.77-1.117,3.725-1.676,5.867-1.863c1.582-0.092,3.26,0.094,4.749,0.465c1.866,0.468,3.634,1.306,5.033,2.513
	c1.395,1.399,2.419,3.076,2.513,5.219c0,0.188,0,0.277,0,0.464h47.133C463.584,282.322,470.291,249.537,470.665,217.586
	L470.665,217.586z"/>
<path fill="#39A642" d="M305.332,488.827c-1.492,0.09-2.888,0.09-4.379,0.09c-1.769,0-3.54,0-5.216-0.09
	c0.187-2.143,0.28-6.429,0.373-8.57c0.187-5.216,0.187-11.179,0.187-16.489c0-0.928,0.093-1.77,0.093-2.606
	c0-4.843,0-10.433-0.093-15.368c-0.094-4.937-0.373-9.222-0.84-11.364l-0.465-0.935c-2.42-2.976-5.029-4.842-8.009-5.959
	c-2.889-1.115-6.147-1.489-10.154-1.583c-3.446-0.094-6.426,0.277-9.406,0.838c-2.98,0.649-5.776,1.493-9.13,2.609
	c-2.608,0.837-4.75,1.676-6.612,1.582c-1.676,0-3.354-0.649-5.402-2.606c-0.467-0.466-0.932-0.934-1.398-1.398
	c-2.887-2.89-5.867-5.773-10.245-5.773c-2.609,0-4.937-0.187-6.986-0.841c-1.956-0.557-3.633-1.488-5.123-2.886
	c-2.98-2.793-2.889-7.636-2.889-11.453c0-2.61,0-4.848-0.744-6.522c-1.023-2.053-3.632-4.102-6.615-5.959
	c-2.793-1.684-5.96-3.171-8.476-4.29c-2.979-1.306-4.937-3.631-6.055-6.428c-1.21-2.888-1.49-6.425-1.397-9.965
	c0-1.862,0-3.912-0.278-5.684c-0.28-2.144-0.931-3.912-2.329-5.31l0.092,0.097c-1.117-1.305-2.327-2.609-3.165-4.192
	c-0.747-1.398-1.306-3.166-1.306-5.216c0-1.492,0.466-2.699,1.117-3.54c0.652-0.838,1.492-1.398,2.236-1.398
	c2.702-0.094,6.427,3.539,8.851,5.959c0.279,0.284,0.464,0.468,0.65,0.748c1.49,1.491,3.166,3.073,5.032,4.468
	c1.953,1.493,4.189,2.704,6.425,3.171c3.727,0.837,6.522,0.743,8.85,0.743c0.093,0,0.28,0,0.373,0
	c2.982-0.094,5.029,0.185,6.519,1.118c1.493,0.931,2.702,2.606,4.1,5.399c3.074,6.244,5.497,6.244,10.059,6.15
	c0.747,0,1.678,0,2.703,0c3.54,0.183,4.562,2.139,6.24,5.399c0.373,0.653,0.745,1.306,1.305,2.236
	c1.025,1.862,2.141,3.446,3.167,4.659c1.117,1.398,2.234,2.418,3.353,3.072c1.676,0.932,2.979,1.212,4.378,1.493
	c1.49,0.369,3.26,0.743,5.959,2.418c1.211,0.839,2.145,2.051,2.795,3.449c0.744,1.675,1.306,3.631,1.678,5.492
	c1.023,4.938,1.769,9.038,3.724,12.671c1.957,3.816,5.032,6.799,10.526,8.755c2.702,1.023,4.1,0.557,5.123-1.117
	c0.747-1.118,0.747-2.423,0.836-4.38c0.747-14.157,1.118-23.189,0.374-29.436c-0.837-6.797-2.886-10.339-6.799-12.943
	c-8.662-5.961-17.604-12.02-25.893-17.324c-8.29-5.403-16.022-10.063-22.075-13.042l-0.558-0.188
	c-1.491-0.276-2.796-0.464-4.007-0.557c-1.209-0.094-2.515-0.188-3.726-0.188c-0.279,0-0.744,0-1.21,0
	c-4.75-0.187-9.316-0.28-13.88-3.446c-2.609-1.862-4.562-3.911-5.496-6.054c-0.744-1.769-0.837-3.631,0.094-5.402
	c0.187-0.371,0.373-0.837,0.559-1.209c1.769-3.167,2.609-4.566-0.931-7.826c-1.21-1.023-2.33-2.516-3.167-4.098
	c-0.652-1.212-1.117-2.517-1.117-3.819c0-0.652,0.092-1.305,0.187-1.862c0.186-1.491,0.837-2.516,1.676-3.076
	c0.838-0.651,2.047-1.021,3.353-1.021c0.651,0,1.303,0.089,1.956,0.187c1.583,0.276,3.167,0.74,4.657,1.489
	c1.304,0.742,2.608,1.861,3.54,3.443c1.023,1.679,1.49,2.983,1.957,4.191c0.557,1.211,0.931,2.33,1.769,3.54
	c2.143,3.354,4.844,4.006,7.825,4.657c1.49,0.373,3.074,0.653,4.565,1.585c1.117,0.654,2.141,1.491,2.887,2.703
	c0.931,1.209,1.583,2.7,2.047,4.749c0.095,0.556,0.187,1.21,0.374,1.769c0.466,3.073,0.84,5.216,4.843,8.196
	c9.221,6.896,18.442,12.855,26.825,18.258c5.776,3.818,11.179,7.262,15.835,10.615c0.745,0.468,1.396,0.842,2.049,1.028
	c0.744,0.187,1.488,0.187,2.234,0c0.745-0.187,1.397-0.654,1.863-1.398c0.279-0.374,0.373-0.745,0.56-1.118
	c0.464-1.77,0.37-4.006,0-6.335c-0.28-2.236-0.56-4.935-1.583-6.985c-6.893-8.288-11.271-13.88-13.694-18.629
	c-2.329-4.473-2.979-8.196-2.606-12.854c0.186-1.492,0.557-2.98,1.489-4.286c1.676-2.419,4.285-3.725,6.799-5.216
	c-3.726-3.818-6.893-7.542-8.942-12.574c-1.397-3.446-2.234-7.264-1.957-10.99c0.187-1.769,0.746-3.354,1.771-4.843
	c1.582-2.33,3.726-4.005,5.959-5.682c-0.93-4.286-2.327-8.476-2.143-12.854c0.187-7.917,5.684-12.76,12.016-16.767
	c0.093-4.47,0.28-9.595,2.236-13.691c1.306-2.61,3.354-4.379,6.333-5.684c2.982,1.399,5.218,3.447,6.613,6.243
	c2.049,4.376,1.865,9.313,1.493,14.065c4.378,4.003,8.568,8.849,8.753,15.181c0.094,4.47-2.143,8.103-3.817,12.109
	c2.517,1.956,4.285,3.818,5.772,6.706c1.306,2.702,2.146,5.588,2.333,7.731c0.187,3.633-1.027,7.731-2.891,11.646
	c-2.512,5.307-5.772,9.404-10.244,13.222c2.517,2.516,4.936,5.032,6.428,8.387c0.931,1.955,1.306,3.911,1.306,5.773
	c-0.094,4.098-1.957,7.914-4.66,11.27c-2.792,3.635-6.518,6.892-9.965,9.781c-1.398,2.233-1.398,5.123-1.398,7.729
	c0,2.236,0.187,4.472,0.652,6.147c0.093,0.373,0.278,0.837,0.56,1.117c0.462,0.836,1.21,1.492,2.143,1.865
	c1.023,0.37,2.142,0.558,3.259,0.277c0.37-0.091,0.838-0.277,1.212-0.557c2.606-1.493,4.191-2.33,5.772-3.262
	c11.551-6.428,25.52-14.254,38.934-24.031c1.959-1.398,3.171-2.98,3.916-4.843c0.743-1.772,1.023-3.727,1.114-5.869
	c0-1.771,0.561-3.351,1.307-4.657c1.026-1.678,2.329-2.885,3.539-3.633c1.399-0.838,3.541-0.744,5.497-0.744
	c3.54,0.094,6.892,0.187,9.127-3.261c0.838-1.305,1.489-2.423,2.236-3.817c0.65-1.211,1.489-2.61,2.423-4.192
	c1.021-1.68,2.05-2.793,3.164-3.54c1.121-0.744,2.329-1.025,3.82-1.118c1.211-0.094,2.326,0,3.447,0.28
	c1.209,0.278,2.232,0.838,3.073,1.493c0.65,0.557,1.023,1.301,1.023,2.232c0.09,0.374,0,0.841-0.093,1.305
	c-0.28,1.306-0.931,2.517-1.772,3.635c-0.744,1.211-1.862,2.513-2.887,3.725c-2.979,3.54-2.979,7.358-2.979,11.177
	c0,4.286,0,8.476-6.429,10.898c-2.98,1.212-5.123,1.771-7.172,2.144c-1.956,0.277-4.005,0.371-6.705,0.464
	c-2.235,0.094-4.284,0.094-6.432,0.468c-2.232,0.374-4.375,1.023-6.518,2.329c-3.074,1.862-7.172,4.191-11.551,6.798
	c-12.202,6.989-26.92,15.462-33.998,21.609c-3.261,2.983-5.496,6.147-6.614,12.481c-1.118,5.869-1.399,14.53-0.932,28.597
	c0.094,4.006,1.307,5.773,3.354,6.332c1.769,0.467,3.442-0.371,5.493-1.396c2.608-1.306,5.589-3.354,7.918-5.498
	c2.42-2.142,4.283-4.467,4.656-6.146c0.187-1.116,0.373-1.862,0.561-2.794c1.024-5.121,2.513-12.851,5.773-14.997
	c1.491-0.931,3.539-1.208,5.684-1.582c1.861-0.277,3.724-0.561,5.68-1.306c2.423-0.837,3.446-3.443,4.565-6.335
	c1.305-3.443,2.887-7.636,7.639-7.822c0.931-0.094,1.862-0.094,2.606-0.094c5.123,0,9.222,0,12.389-6.334
	c1.398-2.793,2.423-4.472,3.727-5.403h0.093c1.307-0.837,3.074-1.024,6.055-1.024c0.275,0,0.556,0.094,1.023,0.094
	c2.979,0.094,8.755,0.276,12.294-0.561c3.541-0.743,4.565-1.956,6.242-3.911c0.374-0.557,0.93-1.115,1.582-1.77
	c0.464-0.467,0.841-0.837,1.211-1.21c1.679-1.77,3.076-3.262,5.589-3.168c0.932,0,2.051,0.093,2.794,0.467
	c0.467,0.278,0.841,0.932,0.841,2.143c0,1.118-0.468,2.607-1.307,4.283c-0.84,1.865-2.052,3.727-3.259,5.032l0.09-0.094
	c-1.209,1.211-2.139,3.447-2.793,5.961c-0.651,2.703-1.024,5.775-1.024,7.916c0.093,3.54,0,6.708-0.837,9.22
	c-0.841,2.334-2.513,4.196-5.496,5.498c-1.307,0.649-2.98,1.21-4.563,1.679c-4.01,1.395-7.92,2.699-9.969,5.679
	c-1.209,1.675-1.489,4.378-1.77,7.547c-0.374,3.911-0.743,8.476-2.891,9.965c-1.301,0.934-3.068,1.398-5.024,1.678
	c-2.144,0.371-4.66,0.371-7.546,0.371c-2.237,0-4.38,0.84-6.429,2.236c-2.419,1.582-4.655,3.915-6.24,5.869
	c-3.448,4.191-6.616,2.793-10.62,1.024c-1.399-0.654-2.793-1.305-4.375-1.771c-2.236-0.838-4.753-1.49-7.266-2.05
	c-2.61-0.559-5.22-0.931-7.731-0.931c-3.913,0.092-7.359,0.372-10.433,1.398c-3.261,1.118-6.054,2.887-8.57,5.773l-0.464,0.93
	c-0.839,3.635-0.745,13.506-0.652,22.357c0,1.586,0,3.166,0,4.562c0,4.38,0,9.318,0.094,13.881c0,1.493,0.093,2.983,0.093,4.378
	C304.959,482.213,305.146,486.591,305.332,488.827L305.332,488.827z"/>
<path fill="#454545" d="M305.796,263.973c-1.769,2.515-3.071,5.123-4.099,7.918c-0.279,0.929-0.65,1.956-0.84,2.886
	c0,0.187-0.092,0.373-0.184,0.651c-0.28,1.399-0.467,2.795-0.56,4.285c-0.373,6.706,1.305,12.388,2.981,17.978
	c1.304,4.097,2.513,8.291,3.074,12.947c0,0.28,0,0.557,0.09,0.837c1.398-0.743,2.89-1.956,4.382-3.818
	c0.65-0.93,1.399-1.675,2.419-0.93c1.028,0.743,0.562,1.769-0.187,2.698c-2.049,2.704-4.281,4.379-6.428,5.123
	c0.097,3.261-0.09,6.798-0.558,10.063c-0.557,3.351-1.584,6.425-3.073,8.754c-0.743,1.023-1.862,1.862-2.792,1.117
	c-1.121-0.836-0.28-1.862,0.372-2.886c1.21-1.863,2.05-4.566,2.609-7.453c0.466-2.979,0.557-6.053,0.557-8.943
	c-1.396,0.093-2.793-0.184-4.004-0.651c-1.583-0.65-2.887-1.675-3.819-2.98c-1.396-1.675-2.143-3.911-1.956-6.146
	c0.094-1.024,0.466-1.957,1.675-1.679c1.306,0.187,1.211,1.026,1.118,2.146c0,1.396,0.467,2.794,1.305,3.908
	c0.747,0.841,1.677,1.586,2.796,2.054c0.837,0.279,1.676,0.463,2.701,0.372c-0.092-0.372-0.092-0.84-0.186-1.213
	c-0.465-4.47-1.677-8.474-2.889-12.481c-1.769-5.869-3.539-11.735-3.165-18.907c0.092-1.399,0.277-2.61,0.464-3.913
	c-0.651-0.56-1.21-1.117-1.77-1.863c-0.652-0.931-1.117-1.769-1.49-3.447c-0.187-0.744-0.28-1.769,1.022-2.049
	c1.211-0.279,1.586,0.653,1.773,1.396c0.277,1.211,0.557,1.77,1.022,2.331c0.094,0.185,0.187,0.278,0.28,0.372
	c0.187-0.467,0.371-1.024,0.558-1.585c1.027-2.98,2.516-5.68,4.378-8.476c0.371-0.652,1.212-1.21,2.144-0.559
	C306.356,262.389,306.26,263.321,305.796,263.973L305.796,263.973z"/>
<path fill="#454545" d="M390.649,379.563c-10.521,12.672-19.93,17.421-28.219,21.706c-6.709,3.444-12.668,6.518-18.071,13.319
	c-0.558,0.743-1.862,0.93-2.606,0.28c-0.748-0.654-0.841-1.862-0.28-2.517c5.867-7.453,12.201-10.713,19.279-14.344
	c8.013-4.103,16.955-8.758,27.109-20.864c0.557-0.651,1.77-0.838,2.605-0.188C391.21,377.607,391.304,378.819,390.649,379.563
	L390.649,379.563z"/>
<path fill="#454545" d="M215.167,373.604c10.154,12.575,19.096,17.234,27.105,21.426c6.985,3.725,13.228,6.984,19,14.437
	c0.56,0.743,0.746,1.862-0.279,2.61c-0.93,0.556-2.049,0.369-2.609-0.377c-5.216-6.799-11.178-9.966-17.79-13.413
	c-8.29-4.378-17.697-9.218-28.317-22.354c-0.557-0.742-0.464-1.955,0.28-2.604C213.305,372.673,214.607,372.859,215.167,373.604
	L215.167,373.604z"/>
<polygon fill="#3E4549" points="525.246,460.881 531.395,465.167 527.482,470.756 521.336,466.471 "/>
<polygon fill="#3E4549" points="533.073,449.704 539.22,453.989 535.306,459.578 529.157,455.295 "/>
<path fill="#3E4549" d="M516.4,467.776l-4.1,5.772l-25.429-17.791c-4.38-3.072-7.546-6.054-9.409-8.848
	c-1.956-2.796-2.793-6.146-2.606-9.875c0.184-3.725,1.77-7.729,4.749-12.014c2.887-4.099,5.96-6.986,9.222-8.57
	c3.26-1.676,6.615-2.049,10.059-1.306c3.54,0.744,7.546,2.794,12.205,6.057l25.426,17.788l-4.005,5.776l-25.431-17.791
	c-3.817-2.606-6.888-4.286-9.218-4.847c-2.239-0.557-4.565-0.276-6.708,0.747c-2.235,1.025-4.192,2.795-5.963,5.312
	c-2.978,4.285-4.096,8.008-3.443,11.27c0.653,3.167,3.725,6.611,9.221,10.525L516.4,467.776L516.4,467.776z"/>
<polygon fill="#3E4549" points="573.311,347.616 580.764,348.828 579.645,355.628 572.285,354.417 "/>
<polygon fill="#3E4549" points="575.453,334.11 582.906,335.321 581.787,342.123 574.425,340.91 "/>
<path fill="#3E4549" d="M568.375,357.678l-1.118,7.078l-30.646-4.846c-5.308-0.837-9.407-2.139-12.388-3.817
	c-2.979-1.77-5.121-4.283-6.614-7.729c-1.488-3.541-1.769-7.827-1.021-12.855c0.837-5.029,2.326-8.941,4.563-11.831
	c2.143-2.886,5.032-4.748,8.476-5.586c3.447-0.841,8.01-0.841,13.6,0.094l30.642,4.842l-1.114,6.985l-30.557-4.843
	c-4.655-0.744-8.103-0.837-10.429-0.28c-2.33,0.468-4.192,1.68-5.776,3.54c-1.489,1.957-2.513,4.376-2.979,7.449
	c-0.838,5.124-0.188,9.038,1.771,11.551c2.049,2.61,6.332,4.382,12.945,5.403L568.375,357.678L568.375,357.678z"/>
<polygon fill="#3E4549" points="519.379,276.081 573.03,274.219 573.311,281.206 525.991,282.881 526.831,309.334 520.498,309.521 
	"/>
<path fill="#3E4549" d="M569.212,247.952l1.676,6.893l-30.085,7.451c-5.217,1.303-9.595,1.771-12.949,1.399
	c-3.351-0.467-6.424-1.957-9.127-4.565c-2.7-2.609-4.656-6.426-5.867-11.458c-1.305-4.842-1.398-9.127-0.464-12.575
	c0.834-3.537,2.7-6.427,5.587-8.475c2.887-2.142,7.078-3.913,12.571-5.309l30.089-7.452l1.772,6.893l-30.089,7.453
	c-4.563,1.117-7.729,2.42-9.686,3.725c-1.955,1.399-3.261,3.26-3.914,5.589c-0.651,2.328-0.558,5.029,0.187,8.01
	c1.21,5.029,3.26,8.383,6.146,9.967c2.793,1.583,7.452,1.583,14.066-0.093L569.212,247.952L569.212,247.952z"/>
<polygon fill="#3E4549" points="487.521,183.96 534.935,158.718 538.286,164.96 514.813,177.535 550.861,188.526 555.333,197 
	525.527,187.407 508.391,223.175 504.012,214.886 519.007,185.171 507.361,181.448 490.877,190.203 "/>
<path fill="#3E4549" d="M302.164,63.058l6.799-0.092c0.094,2.7,0.654,4.936,1.679,6.706c1.118,1.862,2.793,3.354,5.123,4.563
	c2.325,1.211,5.029,1.956,8.103,2.143c2.7,0.187,5.123,0,7.266-0.652c2.143-0.653,3.726-1.677,4.842-2.98
	c1.118-1.399,1.772-2.888,1.866-4.563c0.093-1.677-0.28-3.167-1.214-4.473c-0.835-1.305-2.42-2.515-4.563-3.446
	c-1.399-0.746-4.473-1.77-9.315-3.354c-4.843-1.49-8.289-2.887-10.15-4.005c-2.425-1.583-4.286-3.354-5.403-5.402
	c-1.118-2.05-1.587-4.377-1.399-6.799c0.187-2.702,1.118-5.216,2.89-7.452c1.676-2.236,4.005-3.818,7.079-4.843
	c2.979-1.024,6.335-1.397,9.965-1.21c3.916,0.279,7.358,1.21,10.339,2.7c2.98,1.49,5.123,3.54,6.615,6.147
	c1.488,2.609,2.143,5.496,2.05,8.57l-6.8,0.093c-0.187-3.447-1.214-6.056-3.263-7.918c-1.957-1.956-5.025-2.979-9.125-3.26
	c-4.288-0.279-7.456,0.28-9.501,1.677c-2.05,1.396-3.171,3.26-3.354,5.496c-0.186,1.956,0.464,3.539,1.77,4.842
	c1.211,1.399,4.749,2.889,10.433,4.566c5.586,1.769,9.502,3.166,11.551,4.283c3.073,1.677,5.216,3.633,6.518,5.96
	c1.399,2.329,1.96,4.937,1.773,7.732c-0.28,2.887-1.212,5.495-3.074,7.916c-1.769,2.423-4.285,4.193-7.452,5.403
	c-3.167,1.211-6.615,1.677-10.432,1.399c-4.847-0.374-8.851-1.305-12.015-2.982c-3.167-1.676-5.59-4.005-7.268-6.892
	C302.815,69.952,302.071,66.599,302.164,63.058L302.164,63.058z"/>
<polygon fill="#3E4549" points="237.15,89.976 225.04,37.63 262.857,28.875 264.255,35.021 233.423,42.193 237.056,58.215 
	266.023,51.509 267.422,57.657 238.546,64.363 242.645,82.153 274.781,74.795 276.177,80.943 "/>
<path fill="#3E4549" d="M222.711,91.375c2.33-4.376,2.982-9.499,1.957-15.461l-7.266,1.21c0.931,4.565,0.653,8.382-0.933,11.644
	c-1.582,3.259-4.192,5.682-7.823,7.266c-2.981,1.304-6.148,1.77-9.408,1.396c-3.259-0.372-6.146-1.862-8.757-4.47
	c-2.606-2.516-4.842-5.96-6.706-10.061c-1.398-3.259-2.33-6.613-2.608-10.152c-0.373-3.447,0.279-6.706,2.05-9.688
	c1.77-2.886,4.47-5.215,8.289-6.892c3.259-1.492,6.333-1.862,9.222-1.21c2.886,0.744,5.682,2.515,8.382,5.588l5.776-4.285
	c-3.354-4.005-7.267-6.426-11.737-7.451c-4.472-1.026-9.128-0.466-14.065,1.769c-4.283,1.956-7.825,4.66-10.524,8.199
	c-2.702,3.631-4.192,7.731-4.473,12.388c-0.279,4.75,0.747,9.592,2.98,14.717c2.144,4.657,4.937,8.662,8.477,12.016
	c3.539,3.259,7.452,5.308,11.737,5.959c3.145,0.479,6.544,0.147,10.231-0.98l0.574,6.479c1.582-0.654,2.792-1.118,3.632-1.213
	c0.747-0.092,1.397,0,1.769,0.189c0.374,0.186,0.653,0.557,0.837,0.931c1.306,2.7-2.7,5.216-4.283,5.867
	c-0.651,0.28-1.678,0.746-3.167,1.305l-0.094,3.539c1.583-0.373,4.657-1.399,6.429-2.236c3.258-1.396,5.402-3.167,6.425-5.123
	c1.024-1.956,1.21-3.82,0.467-5.495c-0.56-1.211-1.491-2.051-2.889-2.515c-1.396-0.561-3.074-0.466-5.776,0.372l-0.269-3.446
	c0.153-0.067,0.304-0.12,0.456-0.187C216.75,99.105,220.476,95.754,222.711,91.375L222.711,91.375z"/>
<polygon fill="#3E4549" points="148.942,140.834 115.874,98.547 121.465,94.168 135.063,111.587 157.046,94.355 143.445,76.938 
	149.126,72.56 182.194,114.939 176.51,119.318 160.956,99.385 138.976,116.524 154.529,136.458 "/>
<polygon fill="#3E4549" points="160.583,487.055 177.63,474.296 170.831,494.694 187.317,507.082 166.73,507.082 160.583,525.897 
	154.436,507.082 133.946,507.082 150.338,494.694 143.632,474.296 "/>
<path fill="#3E4549" d="M342.311,522.917l-1.493-5.683l31.392-7.822l1.21,4.656c-2.235,4.005-4.285,9.127-5.959,15.368
	c-1.677,6.149-2.609,12.388-2.797,18.537c-0.184,4.375,0.188,9.034,1.023,13.877l-6.144,1.586c-0.841-3.819-1.212-8.663-1.212-14.44
	c0.094-5.773,0.932-11.455,2.326-17.137c1.399-5.681,3.171-10.619,5.403-14.813L342.311,522.917L342.311,522.917z"/>
<path fill="#3E4549" d="M231.094,560.545l-5.866-1.769l10.524-36.604l-10.618-3.169l1.49-4.936
	c6.429,1.678,9.873,1.861,13.972-3.074l4.378,1.21L231.094,560.545L231.094,560.545z"/>
<polygon fill="#3E4549" points="441.508,487.055 424.371,474.296 431.172,494.694 414.686,507.082 435.27,507.082 441.508,525.897 
	447.657,507.082 468.148,507.082 451.757,494.694 458.37,474.296 "/>
<polygon fill="#3E4549" points="133.106,443.276 89.049,474.109 68.277,444.395 73.493,440.765 90.167,464.701 103.858,455.105 
	89.328,434.522 94.542,430.795 108.981,451.473 129.007,437.503 "/>
<polygon fill="#3E4549" points="80.944,314.83 27.201,312.965 28.597,274.313 34.931,274.498 33.813,306.075 50.207,306.728 
	51.324,277.105 57.565,277.199 56.541,306.911 74.796,307.565 76.008,274.684 82.341,274.87 "/>
<polygon fill="#3E4549" points="89.513,365.406 36.515,373.791 35.302,366.618 72.562,332.154 30.926,338.77 29.903,332.061 
	82.901,323.585 84.018,330.85 46.76,365.313 88.49,358.702 "/>
<polygon fill="#3E4549" points="108.609,408.441 59.522,430.236 43.78,394.749 49.556,392.235 62.408,421.203 77.498,414.495 
	65.39,387.39 71.164,384.783 83.275,411.979 99.946,404.53 86.534,374.351 92.309,371.835 "/>
<path fill="#3E4549" d="M302.725,546.019c-0.467-5.961-0.28-10.713,0.65-14.44c0.837-3.633,2.421-6.616,4.656-8.755
	c2.236-2.143,5.123-3.446,8.759-3.727c2.699-0.184,5.029,0.093,7.172,1.023c2.143,0.837,3.911,2.329,5.403,4.192
	c1.488,1.955,2.699,4.288,3.724,7.172c1.024,2.793,1.771,6.708,2.143,11.644c0.561,5.867,0.374,10.619-0.56,14.347
	c-0.837,3.633-2.419,6.612-4.655,8.755c-2.237,2.143-5.123,3.446-8.758,3.725c-4.843,0.468-8.754-0.93-11.828-4.188
	C305.796,561.943,303.56,555.333,302.725,546.019L302.725,546.019z M309.057,545.457c0.747,8.197,2.143,13.507,4.285,16.022
	c2.142,2.606,4.658,3.725,7.452,3.443c2.793-0.184,5.029-1.769,6.704-4.655c1.677-2.887,2.147-8.383,1.493-16.58
	c-0.744-8.196-2.143-13.6-4.285-16.115c-2.236-2.514-4.655-3.632-7.546-3.35c-2.793,0.187-4.936,1.581-6.429,4.098
	C308.869,531.578,308.313,537.261,309.057,545.457L309.057,545.457z"/>
<path fill="#3E4549" d="M257.549,554.679l5.866,0.187c0.187,2.793,0.84,4.843,2.143,6.335c1.211,1.396,2.982,2.236,5.123,2.514
	c1.864,0.187,3.54,0,5.123-0.744c1.493-0.651,2.796-1.676,3.82-2.98c1.117-1.305,2.143-3.166,3.074-5.497
	c0.839-2.419,1.489-4.842,1.77-7.358c0-0.275,0.094-0.649,0.094-1.21c-1.399,1.771-3.261,3.17-5.497,4.102
	c-2.327,0.931-4.657,1.303-7.08,0.931c-4.189-0.467-7.451-2.423-9.965-5.684c-2.42-3.353-3.354-7.452-2.795-12.294
	c0.653-5.123,2.609-8.94,5.963-11.645c3.353-2.699,7.265-3.818,11.735-3.26c3.261,0.373,6.055,1.68,8.569,3.728
	c2.421,2.049,4.1,4.752,5.123,8.195c1.024,3.354,1.117,8.103,0.373,14.158c-0.743,6.334-2.049,11.363-3.911,14.904
	c-1.865,3.631-4.286,6.24-7.172,7.821c-2.982,1.677-6.335,2.237-9.969,1.77c-3.912-0.464-6.893-1.957-9.126-4.375
	C258.665,561.851,257.549,558.59,257.549,554.679L257.549,554.679z M285.12,535.77c0.463-3.444-0.094-6.336-1.771-8.664
	c-1.583-2.232-3.726-3.536-6.334-3.911c-2.702-0.277-5.216,0.561-7.452,2.517c-2.327,1.955-3.633,4.658-4.096,8.196
	c-0.374,3.166,0.278,5.866,1.956,8.008c1.675,2.237,3.911,3.541,6.706,3.913c2.793,0.28,5.216-0.371,7.263-2.14
	C283.442,541.918,284.746,539.311,285.12,535.77L285.12,535.77z"/>
<path fill="#3E4549" d="M115.223,181.448l-28.782-49.835l4.843-5.96l55.605,16.673l-5.123,6.335l-16.578-5.403l-14.158,17.513
	l8.94,14.809L115.223,181.448L115.223,181.448z M107.864,155.459l11.457-14.158c0,0-23.379-7.825-26.174-9.036
	C95.383,134.966,107.864,155.459,107.864,155.459L107.864,155.459z"/>
<path fill="#3E4549" d="M96.501,218.518L49.09,193.276l9.406-17.791c1.957-3.632,4.006-6.241,6.056-7.917
	c2.142-1.676,4.563-2.609,7.171-2.793c2.702-0.187,5.125,0.279,7.267,1.396c2.049,1.118,3.631,2.702,4.842,4.75
	c1.21,2.048,1.769,4.472,1.677,7.265c2.42-2.423,5.029-3.82,7.825-4.285c2.887-0.466,5.682,0,8.475,1.492
	c2.144,1.117,4.006,2.7,5.403,4.656c1.397,1.957,2.234,3.912,2.609,5.869c0.279,1.957,0.093,4.099-0.466,6.426
	c-0.559,2.331-1.676,5.032-3.259,8.104L96.501,218.518L96.501,218.518z M94.172,209.203l6.334-11.735
	c1.024-2.05,1.77-3.541,2.049-4.379c0.466-1.583,0.746-3.073,0.653-4.376c-0.093-1.306-0.56-2.516-1.398-3.819
	c-0.837-1.211-1.957-2.236-3.54-2.98c-1.675-0.931-3.54-1.305-5.31-1.117c-1.769,0.187-3.353,0.931-4.75,2.327
	c-1.396,1.305-2.887,3.447-4.47,6.521l-5.774,10.898L94.172,209.203L94.172,209.203z M72.282,197.562l5.497-10.248
	c1.491-2.7,2.327-4.843,2.606-6.241c0.374-1.862,0.28-3.446-0.464-4.842c-0.652-1.397-1.77-2.515-3.446-3.446
	c-1.583-0.84-3.167-1.211-4.75-1.118c-1.583,0.186-2.98,0.837-4.193,1.956c-1.209,1.211-2.7,3.446-4.47,6.893l-5.029,9.5
	L72.282,197.562L72.282,197.562z"/>
<path fill="#3E4549" d="M83.18,267.885l-52.348-12.108l5.402-23.194c1.023-4.657,2.33-8.103,3.819-10.339
	c1.491-2.143,3.633-3.726,6.335-4.657c2.702-0.933,5.497-1.024,8.382-0.374c3.726,0.933,6.613,2.795,8.569,5.776
	c1.957,2.98,2.795,7.079,2.329,12.294c1.304-1.676,2.421-2.795,3.54-3.539c2.329-1.677,5.123-2.979,8.289-4.192l16.302-5.775
	l-1.956,8.663l-12.482,4.47c-3.632,1.211-6.427,2.328-8.382,3.261c-1.956,0.93-3.447,1.862-4.285,2.7
	c-0.931,0.933-1.677,1.863-2.142,2.886c-0.374,0.746-0.747,1.957-1.118,3.819l-1.862,8.012l23.192,5.403L83.18,267.885
	L83.18,267.885z M55.515,254.193l3.448-14.904c0.743-3.166,1.023-5.682,0.743-7.638c-0.278-1.956-0.93-3.539-2.236-4.75
	c-1.209-1.305-2.606-2.143-4.375-2.515c-2.423-0.559-4.659-0.187-6.708,1.306c-1.956,1.396-3.446,4.099-4.378,7.916l-3.819,16.58
	L55.515,254.193L55.515,254.193z"/>
<path fill="#3E4549" d="M441.044,130.03L479.7,92.772l16.487,17.138c3.353,3.447,5.59,6.334,6.614,8.849
	c1.024,2.423,1.116,5.029,0.464,7.825c-0.744,2.793-2.143,5.125-4.285,7.266c-2.793,2.608-5.867,3.913-9.502,4.006
	c-3.631,0-7.448-1.583-11.548-4.75c0.651,1.956,1.025,3.631,1.025,4.936c0.09,2.793-0.28,5.867-1.025,9.221l-4.008,16.86
	l-6.241-6.428l3.167-12.947c0.837-3.725,1.398-6.612,1.771-8.756c0.28-2.142,0.28-3.911,0-5.123c-0.187-1.21-0.654-2.33-1.21-3.354
	c-0.374-0.65-1.306-1.676-2.517-2.979l-5.773-5.963l-17.141,16.582L441.044,130.03L441.044,130.03z M467.588,114.289l10.622,10.991
	c2.233,2.327,4.282,4.005,5.961,4.844c1.769,0.837,3.536,1.024,5.212,0.744c1.772-0.374,3.264-1.118,4.473-2.33
	c1.862-1.769,2.703-3.911,2.61-6.332c-0.094-2.515-1.587-5.125-4.29-8.012l-11.827-12.202L467.588,114.289L467.588,114.289z"/>
<path fill="#3E4549" d="M405.09,77.682c4.283-7.824,9.778-12.76,16.395-14.809c6.611-2.143,13.317-1.306,19.934,2.327
	c4.281,2.423,7.636,5.59,9.965,9.595c2.329,4.005,3.353,8.383,3.166,13.134c-0.186,4.657-1.675,9.406-4.285,14.064
	c-2.606,4.844-5.959,8.57-9.965,11.178c-4.005,2.702-8.289,4.099-12.855,4.099c-4.655-0.093-8.94-1.211-13.038-3.446
	c-4.379-2.516-7.825-5.683-10.062-9.782c-2.326-4.096-3.351-8.475-3.073-13.132C401.551,86.159,402.761,81.78,405.09,77.682
	L405.09,77.682z M411.422,81.314c-3.163,5.683-4.098,10.992-2.887,15.929c1.307,4.936,4.195,8.662,8.759,11.27
	c4.752,2.515,9.501,3.074,14.344,1.397c4.846-1.582,8.943-5.402,12.294-11.455c2.146-3.819,3.26-7.545,3.634-11.085
	c0.28-3.541-0.467-6.799-2.05-9.782c-1.585-2.98-4.008-5.308-7.078-6.985c-4.379-2.421-9.037-3.073-13.88-1.77
	C419.712,70.045,415.336,74.236,411.422,81.314L411.422,81.314z"/>
<path fill="#3E4549" d="M350.043,85.6l16.579-51.136l19.28,6.333c3.447,1.024,5.963,2.051,7.639,2.982
	c2.329,1.209,4.188,2.699,5.493,4.47c1.305,1.677,2.143,3.725,2.517,6.241c0.37,2.421,0.093,4.937-0.744,7.451
	c-1.398,4.286-3.912,7.545-7.732,9.688c-3.725,2.05-9.222,1.957-16.394-0.374l-13.132-4.283l-6.708,20.77L350.043,85.6L350.043,85.6
	z M365.5,61.011l13.229,4.283c4.379,1.399,7.732,1.583,10.059,0.56c2.423-1.024,4.099-2.98,5.033-5.959
	c0.65-2.143,0.744-4.193,0.187-6.056c-0.654-1.864-1.679-3.354-3.357-4.379c-1.02-0.65-3.069-1.489-6.146-2.513l-13.039-4.193
	L365.5,61.011L365.5,61.011z"/>
<path fill="#3E4549" d="M510.811,364.943l50.206,19.279l-7.266,18.816c-1.489,3.818-3.17,6.705-5.029,8.569
	c-1.96,1.957-4.192,3.167-6.803,3.632c-2.606,0.562-5.029,0.374-7.358-0.557c-2.143-0.838-4.008-2.144-5.403-4.006
	c-1.488-1.956-2.326-4.285-2.605-7.082c-2.05,2.703-4.379,4.477-7.173,5.216c-2.792,0.842-5.682,0.748-8.568-0.464
	c-2.33-0.836-4.285-2.235-5.961-4.004c-1.679-1.77-2.703-3.54-3.26-5.403c-0.561-1.862-0.653-4.099-0.373-6.429
	c0.28-2.423,1.026-5.215,2.235-8.473L510.811,364.943L510.811,364.943z M514.164,373.884l-4.753,12.481
	c-0.837,2.144-1.306,3.635-1.489,4.566c-0.28,1.676-0.373,3.072-0.093,4.374c0.187,1.307,0.837,2.428,1.769,3.635
	c1.024,1.115,2.236,1.957,3.912,2.606c1.866,0.65,3.634,0.841,5.403,0.374c1.772-0.374,3.166-1.396,4.379-2.888
	c1.21-1.397,2.423-3.818,3.724-6.988l4.38-11.548L514.164,373.884L514.164,373.884z M537.357,382.733l-4.195,10.897
	c-1.118,2.886-1.677,5.121-1.862,6.521c-0.093,1.862,0.279,3.443,1.117,4.749c0.838,1.305,2.049,2.33,3.817,2.982
	c1.68,0.652,3.261,0.838,4.848,0.465c1.585-0.277,2.885-1.117,3.911-2.423c1.024-1.303,2.235-3.728,3.632-7.359l3.911-9.965
	L537.357,382.733L537.357,382.733z"/>
</svg>
