<?xml version="1.0" encoding="utf-8"?>
<!-- Generator: Adobe Illustrator 25.4.1, SVG Export Plug-In . SVG Version: 6.00 Build 0)  -->
<svg version="1.1"
	 id="svg2" xmlns:cc="http://creativecommons.org/ns#" xmlns:dc="http://purl.org/dc/elements/1.1/" xmlns:inkscape="http://www.inkscape.org/namespaces/inkscape" xmlns:rdf="http://www.w3.org/1999/02/22-rdf-syntax-ns#" xmlns:sodipodi="http://sodipodi.sourceforge.net/DTD/sodipodi-0.dtd" xmlns:svg="http://www.w3.org/2000/svg"
	 xmlns="http://www.w3.org/2000/svg" xmlns:xlink="http://www.w3.org/1999/xlink" x="0px" y="0px" viewBox="0 0 391.2 512.16"
	 style="enable-background:new 0 0 391.2 512.16;" xml:space="preserve">
<style type="text/css">
	.st0{fill:#FEFEFE;}
	.st1{fill:#B81B3F;}
	.st2{fill:#F3AB17;}
	.st3{fill:#171715;}
</style>
<sodipodi:namedview  bordercolor="#666666" borderopacity="1" gridtolerance="10" guidetolerance="10" id="namedview4" inkscape:current-layer="svg2" inkscape:cx="62.09704" inkscape:cy="437.09651" inkscape:guide-bbox="true" inkscape:pagecheckerboard="true" inkscape:pageopacity="0" inkscape:pageshadow="2" inkscape:window-height="737" inkscape:window-maximized="1" inkscape:window-width="1280" inkscape:window-x="-8" inkscape:window-y="-8" inkscape:zoom="2.8284272" objecttolerance="10" pagecolor="#ffffff" scale-x="1.3" showgrid="false" showguides="true">
	</sodipodi:namedview>
<g>
	<path class="st0" d="M16.92,257.04l0.11-12.91l0.67-20.45l2.13-14.13l2.14-11.53l2.39-12.37l4.38-15.87l10.06-29.09l7.28-16.23
		l6.58-12.19l4.68-7.59l4.54-6.85l4.43-6.45l7.26-9.89L87.62,66.2l7.07-6.71l5.79-5.13l6.78-5.45l7.27-5.27l7.93-4.97l7.96-4.35
		l8.05-3.91l10.88-4.28l8.65-2.97l5.4-1.21l4.04-1.23l5.12-0.96l6.97-1.01L191.2,18l15.33,0.56L218.39,20l11.67,2.45l9.34,2.76
		l10.1,3.76l8.73,4.02l10.21,5.53l8.35,5.1l12.64,9.64l7.75,6.69l8.34,8.4l6.17,6.39l6.98,8.62l7.86,10.26l5.76,8.32l5.26,9.01
		l4.59,8.15l4.7,9.16l4.65,10.06l5.08,12.92l6.46,20.33l4.33,16.48l3.57,18.59l1.96,14.97l1.31,19.19l0.22,16.12l-0.23,19.24
		l-1.19,12.26l-1.62,12.38l-7.8,35.96l-5.05,17.32l-5.28,13.9l-3.97,9.17l-4.52,9.84l-4.49,8.27l-3.88,6.54l-3.39,5.28l-3.6,6.11
		l-14.74,19.47l-8.76,9.55l-7.36,7.41l-7.66,6.58l-6.71,5.28l-6.51,5.03l-6.97,4.39l-6.43,3.92l-6.84,3.47l-6.41,2.85l-7.26,3.21
		l-9.67,3.17l-11.78,2.82l-10.95,1.82l-18.79,0.9l-15.82-1.47l-19.48-4.12l-10.57-3.42l-13.25-5.89l-9.45-5.08l-10.22-6.62
		l-15.25-11.47l-15.81-15.43l-10.32-11.79l-11.05-15.05l-8.53-14.19l-8.05-14.82l-7.65-17.55l-4.36-12.38l-4.18-13.19l-4.84-19.23
		l-3-14.17l-2.14-13.84l-1.57-23.88L16.92,257.04z M16.92,257.04"/>
	<g>
		<path class="st1" d="M197.64,205.83c27.05,0,51.56,10.99,69.34,28.71l19.01-19.93c-22.74-22.47-53.98-36.36-88.35-36.36
			c-69.28,0-125.8,56.57-125.8,125.85c0,69.34,56.52,125.85,125.8,125.85c69.34,0,125.9-56.52,125.9-125.85
			c0-9.86-1.13-19.39-3.29-28.6h-61.9v27.58h37.6c0,0.32,0,0.64,0,1.02c0,54.15-44.17,98.27-98.32,98.27
			c-54.09,0-98.21-44.13-98.21-98.27S143.54,205.83,197.64,205.83L197.64,205.83z M197.64,205.83"/>
		<path class="st2" d="M292.35,303.07c0,0.33,0,0.65,0,1.03c0,52.15-42.51,94.72-94.71,94.72c-52.1,0-94.66-42.56-94.66-94.72
			c0-9.97,1.56-19.56,4.47-28.6h29.52c-4.09,8.67-6.41,18.37-6.41,28.6c0,36.96,30.17,67.13,67.07,67.13
			c37.01,0,67.13-30.17,67.13-67.13c0-0.38,0-0.7,0-1.03H292.35z M263.58,141.83c-1.13-35.39-30.28-63.9-65.94-63.9
			c-36.25,0-65.89,29.63-65.89,66c0,22.68,11.48,42.83,29.04,54.63l73.97,49.67c10.13,6.73,18.37,16.21,23.6,27.31v-0.05h29.58
			c-6.46-20.58-19.82-38.09-37.39-49.83l-74.3-49.94c-10.23-6.89-16.91-18.58-16.91-31.78c0-21.17,17.24-38.41,38.3-38.41
			c20.47,0,37.28,16.11,38.35,36.31H263.58z M263.58,141.83"/>
	</g>
	<path class="st3" d="M190.75,493.27c-20.19-0.78-40.64-6.18-59.18-15.64c-14.83-7.56-27.35-16.52-40.74-29.13
		c-3.64-3.43-4.09-3.89-8.04-8.1c-29.69-31.69-51.66-76.85-61.05-125.5c-4.2-21.78-5.84-40.41-5.56-63.44
		c0.14-11.68,0.45-17.63,1.45-27.58c4.72-47.18,20.14-91.47,44.3-127.23c2.44-3.61,2.84-4.18,6.1-8.55
		c16.2-21.78,36.04-39.68,57.26-51.64c19.26-10.85,39.35-17.07,60.32-18.69c4.34-0.33,15.74-0.33,20.08,0
		c21.63,1.66,41.68,8.02,61.93,19.63c9.06,5.2,19.62,12.88,28.08,20.43c3.35,2.99,13.94,13.67,16.71,16.86
		c20.47,23.52,36.07,51.13,47.06,83.25c8.32,24.32,13.37,50.52,15.26,79.11c0.43,6.45,0.43,30.08,0.01,36.48
		c-2.27,34.15-8.88,64.4-20.3,92.91c-16.36,40.79-41.18,74.41-71.52,96.83c-18.82,13.9-38.61,22.87-60.43,27.39
		C213.37,492.53,200.07,493.63,190.75,493.27L190.75,493.27z M201.54,492.17c14.87-0.73,28.6-3.52,42-8.53
		c18.31-6.84,34.45-16.6,50.53-30.57c3.9-3.38,13.46-12.96,17.45-17.48c14.54-16.43,28.39-38.17,37.51-58.9
		c0.31-0.69,0.91-2.04,1.34-3.01c10.53-23.6,18.49-53.69,21.78-82.37c1.51-13.13,1.9-20.6,1.9-36.11c0-13.83-0.12-16.76-1.15-28.34
		c-4.86-54.74-24.46-106.11-55.01-144.18c-8.61-10.72-18.1-20.39-28.59-29.1c-18.52-15.39-41.1-26.73-63.13-31.73
		c-9.91-2.24-17.46-3.13-28.13-3.3c-8.42-0.14-12.69,0.07-19.7,0.95c-52.27,6.6-99.4,43.82-129.09,100.07
		c-6.04,11.46-11.36,23.71-15.86,36.64c-3.42,9.86-7.24,23.35-9.14,32.27c-4.05,19.1-6.02,34.24-6.92,53.28
		c-0.37,7.87-0.16,26.72,0.38,34.48c3.29,47.03,16.45,90.57,38.34,126.88c6.85,11.35,14.16,21.45,22.7,31.35
		c3.74,4.34,14.49,15.15,18.71,18.83c27.38,23.84,59.05,37.28,91.49,38.83C194.94,492.44,196.04,492.44,201.54,492.17L201.54,492.17
		z M201.54,492.17"/>
	<g>
		<path class="st3" d="M162.82,303.33h-5.35v-21.73c-1.97,1.97-4.28,3.43-6.92,4.37v-5.25c4.01-1.53,6.65-4.07,7.92-7.61h4.35
			V303.33z M162.82,303.33"/>
		<path class="st3" d="M170.97,296.38l5.17-0.63c0.25,2.24,1.29,3.37,3.13,3.37c2.51,0,3.95-2.82,4.3-8.46
			c-1.34,1.68-3.03,2.52-5.06,2.52c-2.47,0-4.44-0.99-5.91-2.99c-1.46-2.01-2.19-4.31-2.19-6.89c0-2.62,0.74-4.97,2.22-7.05
			c1.48-2.09,3.73-3.14,6.75-3.14c6.49,0,9.73,5.06,9.73,15.19c0,10.38-3.42,15.57-10.26,15.57
			C174.37,303.86,171.73,301.36,170.97,296.38L170.97,296.38z M183.1,283.76c0-1.49-0.33-2.84-1-4.06
			c-0.66-1.21-1.64-1.82-2.95-1.82c-2.3,0-3.45,1.8-3.45,5.41c0,3.75,1.25,5.63,3.74,5.63C181.88,288.92,183.1,287.2,183.1,283.76
			L183.1,283.76z M183.1,283.76"/>
		<path class="st3" d="M201.66,273.1c6.06,0,9.09,5.12,9.09,15.38c0,10.23-3.03,15.35-9.09,15.35s-9.09-5.14-9.09-15.41
			C192.57,278.21,195.6,273.1,201.66,273.1L201.66,273.1z M201.66,277.89c-1.17,0-2.04,0.69-2.63,2.07
			c-0.57,1.36-0.85,4.2-0.85,8.52c0,4.34,0.3,7.19,0.91,8.55c0.6,1.34,1.46,2.02,2.57,2.02c1.27,0,2.17-0.77,2.69-2.3
			c0.52-1.53,0.79-4.29,0.79-8.27c0-4.01-0.28-6.77-0.85-8.3C203.74,278.65,202.87,277.89,201.66,277.89L201.66,277.89z
			 M201.66,277.89"/>
		<path class="st3" d="M214.4,295.59l5.35-0.6c0.41,2.81,1.72,4.21,3.94,4.21c2.67,0,4.01-1.96,4.01-5.88
			c0-3.69-1.38-5.53-4.15-5.53c-1.54,0-2.92,0.73-4.15,2.2l-4.33-0.7l2.75-15.66H232v5.41h-10.11l-0.85,5.09
			c1.19-0.63,2.41-0.94,3.66-0.94c2.51,0,4.56,0.95,6.13,2.86c1.6,1.9,2.4,4.3,2.4,7.17c0,2.47-0.78,4.87-2.34,7.17
			c-1.56,2.28-3.97,3.43-7.25,3.43C218.26,303.83,215.18,301.08,214.4,295.59L214.4,295.59z M214.4,295.59"/>
	</g>
</g>
</svg>
