<?xml version="1.0" encoding="utf-8"?>
<!-- Generator: Adobe Illustrator 16.0.0, SVG Export Plug-In . SVG Version: 6.00 Build 0)  -->
<svg version="1.2" baseProfile="tiny" id="Layer_1" xmlns="http://www.w3.org/2000/svg" xmlns:xlink="http://www.w3.org/1999/xlink"
	 x="0px" y="0px" width="512px" height="512px" viewBox="0 0 512 512" xml:space="preserve">
<g>
	<g>
		<path fill="#00984A" d="M212.034,414.143v38.005h-10.5v-24.903c-1.701,1.29-3.344,2.336-4.934,3.134
			c-1.587,0.802-3.58,1.566-5.977,2.295v-8.512c3.534-1.139,6.278-2.507,8.232-4.102c1.954-1.599,3.484-3.57,4.588-5.917H212.034z"
			/>
		<path fill="#00984A" d="M223.783,443.76l10.322-1.299c0.272,1.442,0.73,2.465,1.378,3.06c0.646,0.595,1.436,0.89,2.368,0.89
			c1.666,0,2.966-0.839,3.901-2.521c0.68-1.239,1.188-3.867,1.527-7.876c-1.239,1.271-2.514,2.207-3.822,2.802
			s-2.82,0.895-4.537,0.895c-3.348,0-6.173-1.189-8.475-3.572c-2.302-2.378-3.454-5.382-3.454-9.019
			c0-2.483,0.588-4.741,1.761-6.783c1.17-2.036,2.786-3.58,4.841-4.621c2.056-1.046,4.641-1.572,7.749-1.572
			c3.737,0,6.737,0.646,8.998,1.927c2.258,1.281,4.063,3.322,5.415,6.114c1.352,2.798,2.027,6.489,2.027,11.074
			c0,6.746-1.42,11.687-4.259,14.825c-2.836,3.134-6.769,4.7-11.799,4.7c-2.975,0-5.318-0.346-7.035-1.032s-3.143-1.695-4.281-3.019
			C225.27,447.405,224.396,445.751,223.783,443.76z M242.898,427.093c0-2.023-0.51-3.609-1.528-4.752
			c-1.021-1.147-2.26-1.724-3.721-1.724c-1.378,0-2.521,0.521-3.429,1.558c-0.91,1.037-1.364,2.59-1.364,4.664
			c0,2.087,0.473,3.686,1.415,4.788c0.942,1.105,2.12,1.658,3.529,1.658c1.461,0,2.678-0.534,3.646-1.604
			C242.414,430.608,242.898,429.078,242.898,427.093z"/>
		<path fill="#00984A" d="M288.188,423.193l-10.322,1.271c-0.271-1.442-0.724-2.461-1.363-3.055
			c-0.637-0.595-1.424-0.895-2.355-0.895c-1.682,0-2.99,0.848-3.926,2.549c-0.683,1.227-1.18,3.839-1.502,7.853
			c1.239-1.258,2.512-2.188,3.819-2.793c1.309-0.604,2.82-0.903,4.54-0.903c3.326,0,6.143,1.189,8.446,3.567
			c2.304,2.377,3.456,5.396,3.456,9.046c0,2.466-0.585,4.719-1.746,6.756c-1.166,2.042-2.778,3.581-4.843,4.627
			c-2.065,1.046-4.65,1.566-7.761,1.566c-3.737,0-6.737-0.636-9-1.912c-2.258-1.272-4.065-3.31-5.415-6.102
			c-1.351-2.797-2.025-6.497-2.025-11.101c0-6.748,1.417-11.688,4.256-14.82c2.839-3.134,6.77-4.706,11.802-4.706
			c2.973,0,5.323,0.347,7.047,1.032c1.723,0.692,3.156,1.696,4.294,3.023C286.728,419.521,287.595,421.189,288.188,423.193z
			 M269.074,439.834c0,2.023,0.511,3.608,1.529,4.756s2.269,1.719,3.746,1.719c1.361,0,2.498-0.516,3.415-1.553
			c0.918-1.037,1.378-2.585,1.378-4.641c0-2.105-0.479-3.71-1.428-4.815c-0.954-1.106-2.134-1.659-3.545-1.659
			c-1.441,0-2.653,0.539-3.631,1.608C269.563,436.317,269.074,437.849,269.074,439.834z"/>
		<path fill="#00984A" d="M293.134,414.783h30.305v7.01c-2.632,2.378-4.835,4.948-6.6,7.719c-2.143,3.364-3.834,7.115-5.074,11.239
			c-0.985,3.212-1.649,7.009-1.985,11.396h-10.351c0.815-6.101,2.097-11.217,3.849-15.346c1.75-4.129,4.521-8.544,8.308-13.253
			h-18.451V414.783z"/>
	</g>
	<path fill="#00984A" d="M255.999,309.812c-3.234,16.912-27.258,25.211-46.972,28.336c-7.544,1.185-15.732,3.336-23.271,7.539
		c-14.549,8.088-24.028,23.383-31.028,36.848c-2.912-10.77-6.682-22.626-16.056-21.009c0.646-8.729-3.985-16.162-14.76-21.442
		c2.908-11.637,0.217-20.037-7.005-25.102c7.328-6.143,0.65-16.7-5.709-25.857c14.866,3.341,32.645,5.927,48.161,0
		c8.078-3.124,14.977-7.972,20.792-13.031c11.959-10.347,28.12-20.798,41.802-20.471c-7.327-12.069-4.631-32.212-0.105-48.161
		c2.046-7.433,3.553-15.729,2.908-24.24c-1.185-16.594-10.991-31.675-20.147-43.74c10.88,1.83,23.161,3.445,25.64-5.709
		c7.646,4.309,16.373,3.23,25.751-4.311c9.264,7.542,17.992,8.62,25.638,4.311c2.585,9.154,14.87,7.539,25.857,5.709
		c-9.264,12.064-19.176,27.146-20.36,43.74c-0.539,8.511,0.862,16.807,3.019,24.24c4.631,15.949,7.216,36.092-0.11,48.161
		c13.682-0.328,29.843,10.124,41.802,20.471c5.82,5.06,12.714,9.907,20.793,13.031c15.515,5.927,33.4,3.341,48.161,0
		c-6.359,9.157-13.037,19.715-5.711,25.857c-7.221,5.064-9.911,13.465-7.004,25.102c-10.774,5.28-15.405,12.714-14.756,21.442
		c-9.378-1.617-13.042,10.239-16.056,21.009c-7.004-13.465-16.483-28.76-31.031-36.848c-7.54-4.203-15.622-6.354-23.268-7.539
		C283.152,335.022,259.125,326.724,255.999,309.812z"/>
	<path fill="#00984A" d="M256,0C114.63,0,0,114.6,0,256c0,141.38,114.63,256,256,256c141.38,0,256-114.62,256-256
		C512,114.6,397.38,0,256,0z M256,499.77C121.37,499.77,12.23,390.63,12.23,256S121.37,12.23,256,12.23
		c134.641,0,243.78,109.14,243.78,243.77S390.641,499.77,256,499.77z"/>
	<g>
		<path fill="#00984A" d="M85.668,185.894l-7.383-3l6.888-16.94l15.126,6.148c0.895,4.138,1.23,7.617,1.019,10.438
			c-0.217,2.815-1.019,5.936-2.407,9.355c-1.712,4.212-3.823,7.355-6.339,9.424c-2.516,2.073-5.488,3.262-8.922,3.566
			c-3.433,0.309-6.99-0.291-10.668-1.783c-3.873-1.572-6.917-3.742-9.134-6.502c-2.212-2.76-3.438-5.986-3.668-9.668
			c-0.171-2.871,0.571-6.341,2.226-10.405c1.592-3.922,3.139-6.71,4.641-8.364c1.498-1.659,3.256-2.825,5.27-3.498
			c2.014-0.678,4.298-0.871,6.851-0.585l-2.41,11.341c-1.517-0.106-2.839,0.212-3.973,0.968c-1.134,0.751-2.027,1.935-2.683,3.548
			c-0.979,2.406-0.921,4.659,0.167,6.766c1.092,2.106,3.441,3.894,7.058,5.364c3.841,1.563,6.878,1.954,9.108,1.18
			c2.234-0.779,3.875-2.456,4.924-5.037c0.5-1.226,0.794-2.47,0.894-3.728c0.099-1.258,0.012-2.779-0.261-4.562l-3.341-1.355
			L85.668,185.894z"/>
		<path fill="#00984A" d="M71.101,139.023l4.521-6.845l6.539,4.32l-4.521,6.845L71.101,139.023z M78.529,146.214l6.539-9.896
			l31.959,21.105l-6.537,9.895L78.529,146.214z"/>
		<path fill="#00984A" d="M122.313,149.229l-27.445-26.719l13.759-14.132c2.553-2.622,4.728-4.405,6.524-5.354
			c1.798-0.947,3.719-1.253,5.761-0.917c2.044,0.336,3.939,1.355,5.687,3.055c1.521,1.482,2.521,3.085,2.991,4.811
			c0.475,1.724,0.5,3.489,0.078,5.292c-0.268,1.15-0.871,2.496-1.812,4.035c1.32-0.68,2.374-1.088,3.162-1.221
			c0.525-0.093,1.446-0.076,2.76,0.048c1.313,0.125,2.268,0.282,2.861,0.473l11.95,3.634l-9.328,9.583l-12.797-3.631
			c-1.645-0.483-2.848-0.659-3.613-0.525c-1.018,0.198-1.902,0.684-2.658,1.458l-0.729,0.749l11.139,10.844L122.313,149.229z
			 M114.28,124.818l3.479-3.576c0.378-0.387,0.981-1.256,1.813-2.611c0.436-0.67,0.595-1.408,0.478-2.214
			c-0.115-0.804-0.471-1.5-1.069-2.083c-0.887-0.862-1.839-1.242-2.862-1.143c-1.021,0.099-2.285,0.924-3.792,2.47l-3.627,3.726
			L114.28,124.818z"/>
		<path fill="#00984A" d="M132.085,87.512l26.854-16.876l4.351,6.924l-16.812,10.564l3.24,5.154l15.594-9.802l4.157,6.616
			l-15.595,9.799l4.019,6.394l17.295-10.871l4.618,7.343l-27.342,17.183L132.085,87.512z"/>
		<path fill="#00984A" d="M180.273,88.504l10.427-4.309c0.822,1.65,1.741,2.809,2.76,3.472c1.657,1.074,3.556,1.242,5.698,0.512
			c1.598-0.548,2.703-1.343,3.312-2.389c0.608-1.046,0.744-2.063,0.405-3.051c-0.32-0.94-1.019-1.641-2.097-2.099
			c-1.078-0.461-3.23-0.507-6.454-0.141c-5.288,0.574-9.293,0.304-12.012-0.809c-2.734-1.108-4.585-3.081-5.555-5.915
			c-0.639-1.864-0.698-3.806-0.187-5.832c0.514-2.025,1.69-3.882,3.534-5.571s4.654-3.178,8.429-4.468
			c4.632-1.583,8.456-1.928,11.475-1.037c3.021,0.889,5.403,3.136,7.147,6.735l-10.344,4.229c-0.836-1.537-1.831-2.521-2.983-2.957
			c-1.152-0.435-2.521-0.382-4.102,0.159c-1.302,0.445-2.188,1.058-2.659,1.834c-0.47,0.776-0.571,1.562-0.299,2.352
			c0.198,0.576,0.646,1.002,1.348,1.279c0.691,0.297,2.095,0.315,4.214,0.051c5.256-0.62,9.127-0.751,11.613-0.394
			c2.488,0.355,4.486,1.168,5.995,2.436c1.512,1.27,2.604,2.894,3.281,4.871c0.792,2.322,0.885,4.687,0.268,7.087
			c-0.613,2.401-1.903,4.5-3.862,6.304c-1.963,1.802-4.695,3.302-8.207,4.502c-6.166,2.108-10.839,2.38-14.022,0.818
			C184.212,94.613,181.838,92.055,180.273,88.504z"/>
		<path fill="#00984A" d="M245.378,47.592l11.769-0.961l1.858,22.742c0.184,2.256,0.01,4.414-0.534,6.474
			c-0.538,2.063-1.499,3.904-2.877,5.528c-1.378,1.622-2.866,2.804-4.468,3.546c-2.222,1.037-4.938,1.686-8.149,1.949
			c-1.857,0.152-3.895,0.187-6.11,0.105c-2.219-0.081-4.097-0.446-5.637-1.099c-1.539-0.649-2.977-1.638-4.317-2.96
			c-1.339-1.32-2.295-2.719-2.871-4.191c-0.927-2.369-1.468-4.491-1.622-6.364l-1.857-22.745l11.77-0.96l1.903,23.286
			c0.17,2.081,0.88,3.661,2.129,4.737s2.898,1.53,4.949,1.364c2.03-0.167,3.576-0.874,4.637-2.122
			c1.06-1.247,1.502-2.929,1.331-5.044L245.378,47.592z"/>
		<path fill="#00984A" d="M275.529,47.525l10.876,1.979l10.396,23.429l3.793-20.848l10.972,1.996l-6.852,37.682l-10.978-1.996
			l-10.345-23.258l-3.766,20.691l-10.949-1.994L275.529,47.525z"/>
		<path fill="#00984A" d="M316.046,82.258l10.535,4.037c-0.539,1.765-0.664,3.24-0.383,4.421c0.466,1.917,1.728,3.346,3.788,4.286
			c1.534,0.703,2.885,0.882,4.047,0.542c1.161-0.341,1.957-0.986,2.391-1.938c0.415-0.903,0.387-1.892-0.078-2.965
			c-0.47-1.076-2-2.587-4.594-4.539c-4.235-3.217-6.959-6.166-8.167-8.844c-1.226-2.684-1.217-5.389,0.033-8.115
			c0.815-1.788,2.105-3.245,3.87-4.362c1.766-1.118,3.898-1.657,6.396-1.615c2.502,0.039,5.563,0.889,9.194,2.546
			c4.45,2.032,7.465,4.41,9.045,7.134c1.581,2.724,1.771,5.991,0.563,9.807l-10.419-4.042c0.447-1.691,0.4-3.09-0.134-4.198
			c-0.539-1.106-1.567-2.007-3.088-2.703c-1.253-0.572-2.318-0.735-3.192-0.496c-0.876,0.242-1.489,0.742-1.835,1.502
			c-0.254,0.556-0.221,1.175,0.102,1.857c0.295,0.691,1.304,1.668,3.022,2.933c4.244,3.161,7.147,5.728,8.711,7.696
			c1.557,1.968,2.45,3.931,2.676,5.892c0.227,1.959-0.096,3.89-0.963,5.791c-1.022,2.235-2.58,4.011-4.678,5.332
			c-2.096,1.323-4.479,1.963-7.137,1.924c-2.664-0.039-5.683-0.83-9.06-2.371c-5.923-2.705-9.508-5.721-10.748-9.044
			C314.705,89.403,314.742,85.913,316.046,82.258z"/>
		<path fill="#00984A" d="M371.47,81.602l15.549,12.051c3.387,2.624,5.3,5.396,5.737,8.313c0.438,2.919-0.493,5.864-2.802,8.839
			c-2.369,3.055-5.138,4.732-8.309,5.028c-3.171,0.297-6.646-1.017-10.415-3.94l-5.12-3.97l-8.709,11.232l-9.393-7.281
			L371.47,81.602z M370.862,101.791l2.295,1.776c1.802,1.396,3.309,2.065,4.524,2.005c1.217-0.062,2.203-0.581,2.959-1.558
			c0.737-0.949,1.046-2,0.922-3.152c-0.12-1.152-1.056-2.406-2.802-3.76l-2.664-2.065L370.862,101.791z"/>
		<path fill="#00984A" d="M392.732,123.454c4.913-3.864,9.815-5.502,14.71-4.917c4.889,0.588,9.258,3.325,13.102,8.215
			c3.936,5.011,5.626,9.931,5.064,14.758c-0.558,4.825-3.263,9.143-8.11,12.954c-3.521,2.766-6.871,4.44-10.056,5.028
			c-3.184,0.585-6.281,0.251-9.295-1.005c-3.009-1.253-5.829-3.551-8.457-6.894c-2.667-3.396-4.335-6.631-5.004-9.708
			c-0.668-3.074-0.373-6.224,0.885-9.447C386.825,129.214,389.213,126.219,392.732,123.454z M400.005,132.791
			c-3.042,2.389-4.783,4.67-5.222,6.845c-0.442,2.173,0.102,4.233,1.632,6.178c1.571,1.998,3.438,3.035,5.6,3.108
			c2.161,0.073,4.926-1.215,8.294-3.862c2.834-2.228,4.456-4.426,4.867-6.599c0.409-2.17-0.157-4.235-1.696-6.194
			c-1.475-1.875-3.322-2.859-5.544-2.954C405.715,129.221,403.069,130.38,400.005,132.791z"/>
		<path fill="#00984A" d="M405.535,172.774l35.114-15.281l7.871,18.083c1.461,3.355,2.29,6.042,2.484,8.065
			c0.198,2.023-0.244,3.917-1.333,5.682c-1.082,1.766-2.741,3.134-4.976,4.106c-1.95,0.848-3.812,1.161-5.586,0.949
			c-1.773-0.217-3.42-0.861-4.931-1.936c-0.963-0.682-1.977-1.751-3.047-3.203c0.13,1.479,0.107,2.608-0.068,3.387
			c-0.111,0.525-0.475,1.368-1.087,2.539c-0.613,1.166-1.12,1.991-1.521,2.47l-7.89,9.683l-5.336-12.263l8.208-10.47
			c1.068-1.341,1.686-2.387,1.852-3.143c0.202-1.019,0.088-2.023-0.346-3.014l-0.415-0.958l-14.253,6.203L405.535,172.774z
			 M431.166,174.585l1.991,4.576c0.216,0.493,0.792,1.382,1.728,2.664c0.456,0.655,1.083,1.083,1.871,1.281
			c0.788,0.198,1.566,0.129,2.331-0.203c1.135-0.493,1.849-1.23,2.144-2.216c0.295-0.982,0.01-2.461-0.853-4.443l-2.074-4.765
			L431.166,174.585z"/>
	</g>
</g>
</svg>
