<?xml version="1.0" encoding="UTF-8"?>
<!-- Created with Inkscape (http://www.inkscape.org/) -->
<svg width="602.82" height="401.87" version="1.1" viewBox="0 0 159.5 106.33" xmlns="http://www.w3.org/2000/svg" xmlns:cc="http://creativecommons.org/ns#" xmlns:dc="http://purl.org/dc/elements/1.1/" xmlns:rdf="http://www.w3.org/1999/02/22-rdf-syntax-ns#">
 <metadata>
  <rdf:RDF>
   <cc:Work rdf:about="">
    <dc:format>image/svg+xml</dc:format>
    <dc:type rdf:resource="http://purl.org/dc/dcmitype/StillImage"/>
    <dc:title/>
   </cc:Work>
  </rdf:RDF>
 </metadata>
 <g transform="translate(37.415 -87.353)">
  <g transform="matrix(.99999 0 0 .99999 1034.1 412.13)">
   <g transform="matrix(.26458 0 0 .26458 287.78 -211.03)">
    <g transform="matrix(3.7794,0,0,3.7794,-1024.4,415.87)">
     <g transform="matrix(.26458 0 0 .26458 287.78 -211.03)">
      <rect x="-5200.9" y="-48.24" width="602.86" height="401.9" fill="#e30a17" stroke-width=".50238"/>
      <g transform="matrix(20.039,0,0,20.039,-7648,-3377.8)"></g>
     </g>
    </g>
   </g>
  </g>
  <g transform="matrix(.34507 0 0 -.34507 179.64 255.01)">
   <g transform="matrix(10.719 0 0 10.719 -561.97 296.46)">
    <path d="m0 0 6.765 11.275 0.037 0.85 1.479 1.405-0.37-2.033-0.85-0.407-6.395-11.571z" fill="#fff" fill-rule="evenodd"/>
   </g>
   <g transform="matrix(10.719 0 0 10.719 -561.97 296.46)">
    <path d="m0 0 6.765 11.275 0.037 0.85 1.479 1.405-0.37-2.033-0.85-0.407-6.395-11.571z" fill="none" stroke="#fff" stroke-miterlimit="3.864" stroke-width=".202"/>
   </g>
   <g transform="matrix(10.719 0 0 10.719 -547.71 287.35)">
    <path d="m0 0 0.518-0.591 11.349 12.901 0.776 0.186 0.887 1.848-1.7-0.851-0.222-0.849z" fill="#fff" fill-rule="evenodd"/>
   </g>
   <g transform="matrix(10.719 0 0 10.719 -547.71 287.35)">
    <path d="m0 0 0.518-0.591 11.349 12.901 0.776 0.186 0.887 1.848-1.7-0.851-0.222-0.849z" fill="none" stroke="#fff" stroke-miterlimit="3.864" stroke-width=".202"/>
   </g>
   <g transform="matrix(10.719 0 0 10.719 -536.62 275.06)">
    <path d="m0 0 0.518-0.628 19.445 14.418 0.96 0.11 1.184 1.552-1.96-0.517-0.369-0.813z" fill="#fff" fill-rule="evenodd"/>
   </g>
   <g transform="matrix(10.719 0 0 10.719 -536.62 275.06)">
    <path d="m0 0 0.518-0.628 19.445 14.418 0.96 0.11 1.184 1.552-1.96-0.517-0.369-0.813z" fill="none" stroke="#fff" stroke-miterlimit="3.864" stroke-width=".202"/>
   </g>
   <g transform="matrix(10.719 0 0 10.719 -527.5 260.8)">
    <path d="m0 0 25.876 11.312 0.444 0.666 2.07 0.295-1.515-1.405-0.851 0.111-25.617-11.682 0.073 0.519z" fill="#fff" fill-rule="evenodd"/>
   </g>
   <g transform="matrix(10.719 0 0 10.719 -527.5 260.8)">
    <path d="m0 0 25.876 11.312 0.444 0.666 2.07 0.295-1.515-1.405-0.851 0.111-25.617-11.682 0.073 0.519z" fill="none" stroke="#fff" stroke-miterlimit="3.864" stroke-width=".202"/>
   </g>
   <g transform="matrix(10.719 0 0 10.719 -520.76 244.96)">
    <path d="m0 0 0.111-0.74 23.733 5.249 0.776-0.222 1.811 0.962-2.033 0.222-0.739-0.555z" fill="#fff" fill-rule="evenodd"/>
   </g>
   <g transform="matrix(10.719 0 0 10.719 -520.76 244.96)">
    <path d="m0 0 0.111-0.74 23.733 5.249 0.776-0.222 1.811 0.962-2.033 0.222-0.739-0.555z" fill="none" stroke="#fff" stroke-miterlimit="3.864" stroke-width=".202"/>
   </g>
   <g transform="matrix(10.719 0 0 10.719 -518.38 227.91)">
    <path d="m0 0v-0.739l16.967 0.259 0.629-0.407 1.922 0.591-1.996 0.629-0.591-0.369z" fill="#fff" fill-rule="evenodd"/>
   </g>
   <g transform="matrix(10.719 0 0 10.719 -518.38 227.91)">
    <path d="m0 0v-0.739l16.967 0.259 0.629-0.407 1.922 0.591-1.996 0.629-0.591-0.369z" fill="none" stroke="#fff" stroke-miterlimit="3.864" stroke-width=".202"/>
   </g>
  </g>
 </g>
</svg>
