<?xml version="1.0" encoding="utf-8"?>
<!-- Generator: Adobe Illustrator 12.0.0, SVG Export Plug-In . SVG Version: 6.00 Build 51448)  -->
<!DOCTYPE svg PUBLIC "-//W3C//DTD SVG 1.1//EN" "http://www.w3.org/Graphics/SVG/1.1/DTD/svg11.dtd" [
	<!ENTITY ns_svg "http://www.w3.org/2000/svg">
	<!ENTITY ns_xlink "http://www.w3.org/1999/xlink">
]>
<svg  version="1.1" id="Layer_1" xmlns="&ns_svg;" xmlns:xlink="&ns_xlink;" width="150.566" height="187.086"
	 viewBox="0 0 150.566 187.086" overflow="visible" enable-background="new 0 0 150.566 187.086" xml:space="preserve">
<g>
	<path fill-rule="evenodd" clip-rule="evenodd" fill="#EE3224" d="M75.283,187.086c-24.354-16.576-40.846-30.382-51.999-41.498
		C8.436,130.638-0.772,116.371,0.051,95.611V0l150.464,0.07v95.61c0.823,20.76-8.385,35.028-23.233,49.978
		C116.128,156.774,99.636,170.58,75.283,187.086L75.283,187.086z"/>
	<path fill-rule="evenodd" clip-rule="evenodd" fill="#FFFFFF" d="M3.229,3.176V94.26c-0.185,13.324,1.136,26.989,22.251,48.529
		c10.683,10.896,26.478,24.179,49.802,40.394c23.324-16.215,39.12-29.497,49.802-40.394c21.116-21.54,22.437-35.205,22.252-48.529
		V3.176H3.229L3.229,3.176z"/>
	<polygon fill-rule="evenodd" clip-rule="evenodd" fill="#EE3224" points="6.403,6.352 6.403,33.445 144.164,33.445 144.164,6.352 
		6.403,6.352 	"/>
	<path fill-rule="evenodd" clip-rule="evenodd" fill="#EE3224" d="M6.403,36.619v56.788c-0.178,12.994,0.893,25.723,21.136,46.73
		c10.24,10.628,25.383,23.322,47.744,39.137c22.361-15.814,37.504-28.509,47.744-39.137c20.244-21.008,21.313-33.736,21.137-46.73
		V36.619H6.403L6.403,36.619z"/>
	<path fill-rule="evenodd" clip-rule="evenodd" fill="#FFFFFF" d="M80.478,70.852c1.72-0.437,4.202-1.676,4.202-3.015
		c0-2.213-2.143-2.985-3.37-4.687c-1.006-1.395-1.771-3.729-1.504-4.922c0.05-0.218,1.595-1.312,1.835-1.395
		c1.877-0.647,4.157-0.237,6.834-0.285c1.532-0.244,4.193-1.137,4.561-1.622c0.241-0.317,1.027-1.674,0.013-2.142
		c-1.393-0.497-0.873-0.705-0.6-1.32c0.019-0.04,0.003-0.13,0.022-0.172c0.05-0.025,0.123-0.215,0.116-0.279
		c0.035-0.071,0.099-0.071,0.137-0.15c0.167-0.324-0.198-0.38-0.496-0.6c-0.388-0.372,0.625-0.885,0.794-1.043
		c0.234-0.219,0.36-0.37,0.375-0.86c0.191-0.366,0.462-0.563,0.404-0.816c-0.314-0.241-0.737-0.761-0.737-0.761
		c1.193-0.073,1.851-0.395,2.069-0.517c0.438-0.244,0.395-1.413,0.541-2.094c0.602-0.006,2.343,0.614,2.976,1.246
		c2.02,2.044,2.599,2.507,4.447,4.478l-1.743,1.433c0,0-0.493,2.058-0.761,2.374c-0.838,0.326-1.117,1.842,1.422,3.416
		c0.852,0.682,1.233,1.283,1.712,2.203c0.187,1.402-0.491,3.425-0.491,4.94c0,2.335-0.413,5.28-1.07,7.47
		c-2.704,2.052-3.714,2.583-6.982,3.065c0.068,1.21-0.463,2.111-0.682,2.7c0.711,1.156,0.68,5.032,0.316,6.205
		c8.141,4.065,12.168,5.925,14.855,12.879c0.389,0.243,5.472-0.718,5.91-0.475c1.945-0.219,1.419,0.767,3.39,0.572
		c2.043,0.705,1.967,2.873,2.234,5.209c0.268,1.824,0.314,7.307-0.586,8.839c-0.341,2.311-0.999,2.794-1.094,4.545
		c-0.222,4.088-0.605,2.672-1.919,5.957c-1.289,2.238-4.01,4.701-4.819,5.717c-2.816,3.534-7.622,3.751-8.279,7.474
		c0,0,0.17,2.776-0.073,2.776l-61.013-0.023c0.122-1.313,0.243-1.241,0.584-2.116c0.876-0.609,2.993-1.242,4.355-1.777
		c3.82-0.925,7.038,2.059,11.734,0.209c0.219-1.046,2.062-3.889,2.889-4.741c1.557-0.852,4.687-3.11,6.219-3.719
		c3.163-1.021,3.863-3.037,11.211-6.2c0-3.471-1.11-12.229,1.145-15.502c-2.211-0.392-8.772-5.375-9.174-5.826
		c-0.433,0.751-0.423,1.566-0.561,1.883c-0.073,0.169-0.099,0.295-1.34,0.465c-1.825-0.656-6.266-2.957-7.361-4.271
		c-0.122-0.146-0.11-1.132,0.547-1.302c2.627,0.778,3.989,1.347,3.648-0.405c-1.922-1.8-3.721-3.058-7.027-7.695
		c-4.701,1.876-10.662-1.23-12.408-2.747c-5.475,3.139-7.425,4.147-12.199,5.468c-0.452,1.09-1.702,0.687-2.881,1.469
		c-0.489,0.674,0.37,2.251-1.119,3.441c-1.728-0.049-3.201,0.056-4.174-0.6l2.224-3.073c-0.086-2.102,0.653-3.421,1.474-4.298
		c3.488-3.279,3.524-6.188,5.334-8.475c1.476-1.864,2.219-1.922,4.409-1.768c3.413,0.241,7.493,1.039,9.984,2.323
		c0.876,0.414,2.777,0.175,3.58-0.189c0.219-0.414,0.86-1.271,1.594-1.771c0.581-2.615,2.489-7.298,3.974-8.833
		c0.018-1.298,0.507-1.987,0.533-2.582c0.013-0.312-0.177-0.522-0.823-0.583c-0.599,0.362-1.425,0.765-2.076,0.854
		c-0.755,1.617-1.399,2.776-2.344,3.389c-0.809,0.526-1.964,0.107-2.51-0.352c-0.713-0.601-0.727-1.179-0.727-1.865
		c0-1.086,0.703-3.902,1.234-6.691c0.294-2.515,0.904-6.882,2.108-8.106c-0.021-1.221-0.142-2.442-0.414-3.664
		c0.338,0.189,0.77,0.535,1.077,0.849c0.049-0.326,0.056-0.652,0.021-0.978c0.906,0.434,1.605,1.283,2.259,2.219
		c14.863-1.163,17.904,7.914,19.562,17.163C78.352,69.25,79.359,70.925,80.478,70.852L80.478,70.852z"/>
	<path fill-rule="evenodd" clip-rule="evenodd" fill="#FFFFFF" d="M61.336,154.881v-7.463h-2.292v-1.43
		c0.96-0.078,1.332-0.293,1.939-0.588c0.568-0.255,0.979-0.783,1.097-1.469h1.489v10.949H61.336L61.336,154.881z M66.096,152.081
		h2.292c0,0.921,0.47,1.272,1.489,1.195c0.568-0.039,1.058-0.372,1.273-0.999c0.216-0.588,0.333-1.332,0.333-2.077
		c-0.45,0.647-1.195,1.058-2.174,1.058c-0.921,0-1.666-0.372-2.351-1.058c-0.666-0.686-1.019-1.587-1.019-2.781
		c0-0.822,0.216-1.586,0.568-2.154c0.313-0.548,0.862-0.979,1.371-1.233c0.549-0.275,1.155-0.393,1.665-0.413
		c1.136-0.058,2.096,0.255,2.743,0.961c0.646,0.704,1.156,1.547,1.194,2.605c0.04,0.764,0.059,1.429,0.059,1.881
		c0,1.782-0.313,3.251-0.901,4.348c-0.607,1.136-1.606,1.705-3.095,1.705c-0.568,0-1.116-0.078-1.606-0.275
		c-0.509-0.195-0.921-0.567-1.254-1.019C66.351,153.375,66.096,152.766,66.096,152.081L66.096,152.081z M68.054,147.36
		c0,0.607,0.157,1.156,0.451,1.469c0.313,0.354,0.744,0.51,1.214,0.51c0.509,0,0.882-0.195,1.195-0.588
		c0.294-0.371,0.451-0.881,0.451-1.391c0-0.549-0.118-1.019-0.392-1.371c-0.333-0.411-0.745-0.588-1.253-0.588
		c-0.587,0-1.058,0.177-1.273,0.549C68.231,146.341,68.054,146.811,68.054,147.36L68.054,147.36z M74.989,150.572
		c0-0.078-0.059-0.234-0.059-0.372c0-0.176,0-0.313,0-0.41c0-0.138,0-0.216,0-0.354c0-1.605,0.372-2.938,1.018-4.035
		c0.647-1.077,1.726-1.586,3.214-1.567c0.665,0,1.332,0.138,1.763,0.373c0.47,0.254,0.803,0.646,1.038,1.058
		c0.216,0.411,0.392,0.861,0.392,1.332h-1.997c-0.06-0.334-0.216-0.628-0.51-0.784c-0.274-0.137-0.568-0.234-0.98-0.234
		c-1.135,0-1.821,0.822-1.821,2.429c0,0.137,0.059,0.274,0.059,0.51c0.628-0.549,1.372-0.784,2.175-0.784
		c0.568,0,1.136,0.156,1.606,0.411c0.49,0.274,0.96,0.667,1.254,1.155c0.313,0.491,0.509,1.098,0.509,1.744
		c0,0.588-0.137,1.234-0.392,1.919c-0.234,0.628-0.705,1.195-1.273,1.646c-0.568,0.432-1.312,0.646-2.232,0.646
		c-0.96,0-1.822-0.431-2.508-1.155C75.577,153.375,75.067,152.179,74.989,150.572L74.989,150.572z M78.867,149.475
		c-0.509,0-0.96,0.196-1.253,0.51c-0.274,0.313-0.45,0.764-0.45,1.332c0,0.489,0.176,0.999,0.51,1.41
		c0.293,0.353,0.744,0.588,1.253,0.588c0.411,0,0.822-0.177,1.156-0.49c0.332-0.313,0.509-0.783,0.509-1.37
		c0-0.549-0.177-1.078-0.411-1.431C79.925,149.652,79.436,149.475,78.867,149.475L78.867,149.475z M83.862,152.081h2.293
		c0,0.372,0.098,0.686,0.392,0.921s0.626,0.411,1.038,0.411c0.451,0,0.901-0.176,1.195-0.509c0.293-0.354,0.45-0.862,0.45-1.509
		s-0.216-1.136-0.509-1.508c-0.295-0.313-0.745-0.51-1.195-0.51c-0.588,0-1.097,0.274-1.371,0.822h-2.019l0.921-5.993h6.014v1.919
		h-4.524l-0.392,2.115c0.567-0.332,1.195-0.509,1.939-0.509c0.92,0,1.724,0.274,2.351,0.881c0.686,0.55,1.018,1.45,1.076,2.645
		c0,1.02-0.273,1.881-0.861,2.704c-0.509,0.823-1.527,1.293-2.918,1.293c-1.313,0-2.331-0.333-2.979-0.96
		c-0.627-0.687-0.959-1.391-0.959-2.018C83.804,152.218,83.862,152.179,83.862,152.081L83.862,152.081z"/>
	<path fill-rule="evenodd" clip-rule="evenodd" fill="#FFFFFF" d="M13.015,22.562l3.343-0.258c0.042,0.735,0.19,1.332,0.423,1.729
		c0.339,0.596,0.867,0.934,1.523,0.934c0.529,0,0.91-0.139,1.185-0.477c0.254-0.318,0.381-0.715,0.381-1.133
		c0-0.397-0.126-0.795-0.381-1.133c-0.233-0.318-0.847-0.596-1.799-0.914c-1.523-0.477-2.624-1.133-3.301-1.948
		c-0.656-0.794-0.995-1.789-0.995-3.061c0-0.794,0.19-1.59,0.53-2.266c0.338-0.735,0.846-1.332,1.523-1.729
		c0.656-0.397,1.629-0.596,2.814-0.596c1.418,0,2.519,0.338,3.28,1.053c0.762,0.815,1.249,2.008,1.396,3.677l-3.301,0.259
		c-0.085-0.736-0.275-1.252-0.571-1.59c-0.275-0.337-0.656-0.477-1.186-0.477c-0.38,0-0.719,0.14-0.909,0.338
		c-0.191,0.278-0.276,0.537-0.276,0.934c0,0.199,0.042,0.458,0.233,0.676c0.148,0.199,0.572,0.397,1.186,0.596
		c1.523,0.457,2.624,0.935,3.301,1.392c0.656,0.477,1.142,1.073,1.417,1.729c0.339,0.735,0.487,1.471,0.487,2.345
		c0,1.054-0.19,1.988-0.635,2.862c-0.381,0.854-0.952,1.451-1.651,1.928c-0.719,0.457-1.672,0.656-2.772,0.656
		c-1.905,0-3.238-0.517-4-1.531C13.501,25.503,13.057,24.171,13.015,22.562L13.015,22.562z M32.039,25.225h-4l-0.529,2.604h-3.619
		l4.275-15.86h3.83l4.274,15.86H32.61L32.039,25.225L32.039,25.225z M31.319,21.767l-1.291-5.724l-1.228,5.724H31.319L31.319,21.767
		z M37.372,11.968h4.592l1.798,9.659l1.778-9.659h4.613v15.86h-2.899V15.705l-2.201,12.124h-2.625l-2.201-12.124v12.124h-2.857
		V11.968L37.372,11.968z M51.783,22.562l3.322-0.258c0.063,0.735,0.19,1.332,0.444,1.729c0.317,0.596,0.847,0.934,1.524,0.934
		c0.529,0,0.91-0.139,1.185-0.477c0.232-0.318,0.381-0.715,0.381-1.133c0-0.397-0.148-0.795-0.381-1.133
		c-0.232-0.318-0.846-0.596-1.799-0.914c-1.545-0.477-2.624-1.133-3.302-1.948c-0.655-0.794-0.994-1.789-0.994-3.061
		c0-0.794,0.19-1.59,0.529-2.266c0.317-0.735,0.846-1.332,1.523-1.729c0.656-0.397,1.608-0.596,2.815-0.596
		c1.417,0,2.518,0.338,3.28,1.053c0.762,0.815,1.249,2.008,1.375,3.677l-3.279,0.259c-0.106-0.736-0.296-1.252-0.572-1.59
		c-0.296-0.337-0.677-0.477-1.185-0.477c-0.403,0-0.72,0.14-0.91,0.338c-0.191,0.278-0.296,0.537-0.296,0.934
		c0,0.199,0.042,0.458,0.232,0.676c0.148,0.199,0.571,0.397,1.206,0.596c1.524,0.457,2.624,0.935,3.28,1.392
		c0.677,0.477,1.143,1.073,1.439,1.729c0.339,0.735,0.465,1.471,0.465,2.345c0,1.054-0.19,1.988-0.614,2.862
		c-0.381,0.854-0.952,1.451-1.672,1.928c-0.719,0.457-1.671,0.656-2.75,0.656c-1.926,0-3.259-0.517-4.021-1.531
		C52.249,25.503,51.825,24.171,51.783,22.562L51.783,22.562z M71.23,11.968h3.472v9.46c0,0.934-0.085,1.809-0.318,2.663
		c-0.191,0.815-0.53,1.53-0.952,2.146c-0.487,0.656-0.953,1.133-1.439,1.332c-0.677,0.318-1.482,0.517-2.434,0.517
		c-0.572,0-1.186-0.06-1.82-0.12c-0.656-0.139-1.227-0.338-1.651-0.676c-0.444-0.338-0.825-0.795-1.206-1.332
		c-0.317-0.596-0.614-1.271-0.762-1.868c-0.19-0.994-0.275-1.928-0.275-2.663v-9.46h3.47v9.659c0,0.874,0.191,1.53,0.529,2.067
		c0.339,0.477,0.804,0.676,1.438,0.676c0.614,0,1.037-0.199,1.418-0.676c0.338-0.457,0.528-1.193,0.528-2.067V11.968L71.23,11.968z
		 M77.049,11.968h3.281l4.253,8.805v-8.805h3.322v15.86h-3.322l-4.253-8.725v8.725h-3.281V11.968L77.049,11.968z M89.641,22.562
		l3.322-0.258c0.063,0.735,0.19,1.332,0.444,1.729c0.318,0.596,0.847,0.934,1.524,0.934c0.507,0,0.888-0.139,1.185-0.477
		c0.233-0.318,0.381-0.715,0.381-1.133c0-0.397-0.147-0.795-0.381-1.133c-0.233-0.318-0.867-0.596-1.82-0.914
		c-1.523-0.477-2.624-1.133-3.28-1.948c-0.677-0.794-0.994-1.789-0.994-3.061c0-0.794,0.19-1.59,0.508-2.266
		c0.338-0.735,0.868-1.332,1.524-1.729c0.677-0.397,1.629-0.596,2.813-0.596c1.439,0,2.539,0.338,3.302,1.053
		c0.762,0.815,1.227,2.008,1.375,3.677l-3.279,0.259c-0.106-0.736-0.297-1.252-0.572-1.59c-0.296-0.337-0.677-0.477-1.206-0.477
		c-0.381,0-0.698,0.14-0.889,0.338c-0.19,0.278-0.296,0.537-0.296,0.934c0,0.199,0.042,0.458,0.232,0.676
		c0.148,0.199,0.571,0.397,1.206,0.596c1.524,0.457,2.624,0.935,3.28,1.392c0.677,0.477,1.143,1.073,1.439,1.729
		c0.316,0.735,0.466,1.471,0.466,2.345c0,1.054-0.191,1.988-0.614,2.862c-0.381,0.854-0.953,1.451-1.672,1.928
		c-0.72,0.457-1.672,0.656-2.772,0.656c-1.904,0-3.237-0.517-4-1.531C90.107,25.503,89.683,24.171,89.641,22.562L89.641,22.562z
		 M101.64,11.968h5.861c1.249,0,2.201,0.397,2.814,1.272c0.678,0.795,0.952,2.007,0.952,3.598c0,1.589-0.317,2.861-0.994,3.736
		c-0.72,0.935-1.757,1.392-3.195,1.392h-1.904v5.863h-3.534V11.968L101.64,11.968z M105.174,18.706h0.867
		c0.655,0,1.143-0.139,1.418-0.477c0.296-0.318,0.423-0.735,0.423-1.252c0-0.537-0.127-0.934-0.381-1.272
		c-0.232-0.338-0.656-0.537-1.334-0.537h-0.993V18.706L105.174,18.706z M112.666,19.898c0-2.604,0.528-4.591,1.565-6.062
		c0.995-1.471,2.476-2.126,4.296-2.126c1.904,0,3.344,0.656,4.38,2.067c0.995,1.471,1.524,3.458,1.524,5.982
		c0,1.868-0.233,3.398-0.656,4.531c-0.444,1.212-1.101,2.146-1.968,2.803c-0.805,0.675-1.905,0.994-3.132,0.994
		c-1.291,0-2.35-0.259-3.195-0.855c-0.825-0.536-1.523-1.471-2.011-2.663C112.94,23.297,112.666,21.767,112.666,19.898
		L112.666,19.898z M116.2,19.898c0,1.61,0.189,2.802,0.613,3.458c0.423,0.735,0.994,1.073,1.757,1.073
		c0.719,0,1.332-0.338,1.713-1.073c0.445-0.656,0.635-1.848,0.635-3.657c0-1.47-0.189-2.603-0.635-3.259
		c-0.422-0.675-1.036-1.073-1.756-1.073s-1.291,0.398-1.714,1.073C116.389,17.175,116.2,18.309,116.2,19.898L116.2,19.898z
		 M126.335,27.828v-15.86h5.883c1.08,0,1.904,0.139,2.476,0.338c0.571,0.259,1.038,0.795,1.376,1.471
		c0.381,0.735,0.528,1.59,0.528,2.584c0,0.874-0.104,1.669-0.38,2.265c-0.296,0.676-0.677,1.212-1.101,1.551
		c-0.339,0.258-0.72,0.457-1.248,0.656c0.443,0.198,0.719,0.397,0.909,0.596c0.148,0.139,0.339,0.397,0.571,0.795
		c0.233,0.477,0.382,0.815,0.487,1.014l1.715,4.591h-3.958l-1.905-4.869c-0.254-0.597-0.443-0.994-0.635-1.193
		c-0.232-0.258-0.507-0.397-0.846-0.397h-0.339v6.459H126.335L126.335,27.828z M129.87,18.368h1.48c0.191,0,0.466-0.06,0.953-0.199
		c0.233-0.06,0.423-0.259,0.571-0.537c0.147-0.199,0.232-0.536,0.232-0.854c0-0.536-0.126-0.934-0.381-1.212
		c-0.232-0.258-0.656-0.397-1.291-0.397h-1.565V18.368L129.87,18.368z"/>
	<path fill-rule="evenodd" clip-rule="evenodd" fill="#EE3224" d="M97.311,133.038l-11.547,0.099l1.268-2.583
		c1.971-1.313,8.401-4.618,12.764-8.255c3.951-3.294-2.694-8.083-0.962-9.306c2.156-0.409,8.405-6.748,11.185-12.522
		c0.354-0.735,2.068-0.608,2.312-0.463c0.364,0.219,2.387,1.898,1.876,2.896c-1.362,4.453-1.257,5.3-1.219,7.709
		c0.104,6.596-1.722,18.104-8.698,16.681C101.221,128.778,99.5,131.457,97.311,133.038L97.311,133.038z"/>
	<path fill-rule="evenodd" clip-rule="evenodd" fill="#EE3224" d="M77.791,133.28c-5.328-0.681-3.298,1.819-10.67-0.248
		c0.268-0.073-0.812-3.422,3.71-5.333c5.446-2.304,9.013-2.229,14.757-5.9c0.561-0.315,1.353-3.998,1.395-4.165
		c0.31-1.686,0.222-2.444,0.39-3.235c0.305-1.438,0.493-0.96,2.65-0.96c0.193,0.738,0.533,1.515,1.054,2.34
		c1.099,1.738,1.983,2.424,3.262,4.723c-2.116,2.58-7.408,6.525-9.087,7.498c-1.532,0.438-2.135,0.851-3.668,1.166
		C80.463,129.846,78.448,132.574,77.791,133.28L77.791,133.28z"/>
	<path fill-rule="evenodd" clip-rule="evenodd" fill="#EE3224" d="M35.431,85.1c1.539-1.551,1.798-2.917,2.733-4.506
		c0.439-0.747,1.312-2.206,3.125-1.612c1.548,0.508,1.956,1.224,3.087,1.76c-2.164,1.007-2.628,0.425-4.423,1.925
		C38.453,83.921,36.283,84.735,35.431,85.1L35.431,85.1z"/>
</g>
</svg>
