<svg height="409.77161" viewBox="0 0 321.44 538.58" width="244.03838"
    xmlns="http://www.w3.org/2000/svg">
    <g fill-rule="evenodd">
        <path
            d="m321.38 381.81c-.02-.93 0-2.11 0-3.04v-261.24s-28.16 22.14-78.87 6.82c-37.86-14.83-47.07-22.97-67.72-32.27-57.94-28.28-108.91-32.22-174.79.75v304.4s-.09 5.22 1.04 13.57c7.21 72.11 76.51 128.36 160.58 127.78 84.87-.59 153.89-58.89 158.95-132.06.75-6.25 1-13.95.8-24.71z"
            fill="#5a0e27" />
        <path
            d="m173.01 267.97c-43.3 9.07-87.81 49.43-87.81 95.01 0 50.92 47.82 84.39 87.45 81.56 29.18-2.08 57.5-12.51 59.68-47.83 1.7-27.51-16.02-38.89-39.64-47.6-20.77-7.71-35.85-27.15-36.03-49.49-.06-11.98 5.45-24.36 16.35-31.65m148.37-22.4c-23.25 16.42-53.12 20.92-89.51 20.92-5.69 0-11.02-.36-15.99-.95 10.29 5.93 15.93 12.98 19.44 25.61-7.27-3.32-14.41-5.1-19.2-5.1-10.42-.06-20.23 7.05-19.8 17.84.3 6.94 5.51 13.1 13.26 16.24 17.62 7.05 35.61 12.33 51.96 22.23 32.52 19.85 39.12 44.33 39.12 64.84 0 26.67-12.85 56.42-41 79.64-23.31 19.24-54.48 32.89-97.63 33.83-47.69 1.04-82.41-16.72-109.84-43.77-25.33-24.98-34.48-60.56-34.48-92.99 0-45.58 20.49-83.89 54.4-108.72 24.89-18.2 59.04-29.1 88.23-28.81-17.62-8.36-36.33-16.18-65.7-16.18-32.46 0-67.63 14.68-94.64 46.51v-80.12c23.07-13.57 58.61-23.59 91.8-23.59 44.75 0 67.26 18.27 89.63 33.96 22.14 15.54 40.42 28.24 77.25 29.92 23.05 1.05 44.17-3.83 62.7-16.22v24.89z"
            fill="#75b7e5" />
        <path
            d="m164.71 467.27 8.82.1-5.18 9.06c8.21-1.63 13.77 18.62-1.12 19.35-10.4-.05-10.2-12.21-8.13-16.61zm1.83 14.95c-.9 0-1.62 1.63-1.62 3.63s.73 3.63 1.62 3.63 1.62-1.63 1.62-3.63-.73-3.63-1.62-3.63"
            fill="#fff" />
        <path d="m135.41 467.51-.15 27.19-7.34-.11.02-21.08-3.07-.04v-5.93z" fill="#fff" />
        <path d="m178.47 467.52-.11 6.51 8.38-.16-9.42 20.65 8.58.23 10.6-27.3z" fill="#fff" />
        <path
            d="m146.98 485.56-5.65 8.99 8.18.07 6.51-13.26c4.89-17.92-21.86-19.89-17.24-.82.93 3.43 3.26 5.15 8.19 5.01m.2-12.71c.9 0 1.62 1.63 1.62 3.63s-.73 3.63-1.62 3.63-1.62-1.62-1.62-3.63.73-3.63 1.62-3.63"
            fill="#fff" />
    </g>
    <path
        d="m160.69 0 8.95 25.2 26.86.82-21.12 16.18 7.44 25.93-22.13-15.01-22.14 15.01 7.45-25.9-21.13-16.21 26.86-.8z"
        fill="#d39d3f" />
    <path
        d="m166.85 115.64c-.97-4.66-2.84-8.98-5.43-12.78-.21 0-.41-.01-.62-.01-17.83 0-32.61 13.04-35.33 30.1 8.11-10.75 20.99-17.7 35.49-17.7 1.99 0 3.96.14 5.88.39z"
        fill="#fff" />
    <path
        d="m162.02 119.77c-15.53 0-29.19 7.97-37.13 20.04.16 4.5 1.14 8.8 2.81 12.73 5.67-12.26 18.08-20.77 32.47-20.77 2.04 0 4.05.18 6 .51.82-3 1.26-6.15 1.26-9.41 0-.94-.05-1.87-.12-2.79-1.74-.21-3.5-.32-5.3-.32z"
        fill="#fff" />
    <path
        d="m138.19 145.12c-3.53 3.18-6.32 6.98-8.3 11.12.1.18.19.36.3.54 8.98 15.4 27.69 21.6 43.8 15.35-13.37-1.59-25.86-9.21-33.17-21.74-1-1.72-1.88-3.49-2.63-5.28z"
        fill="#fff" />
    <path
        d="m144.01 147.02c7.7 13.49 21.39 21.4 35.8 22.32 3.83-2.37 7.08-5.35 9.66-8.75-13.46 1.15-27-5.41-34.13-17.91-1.01-1.78-1.85-3.6-2.53-5.46-3.01.78-5.97 1.96-8.79 3.57-.82.47-1.6.97-2.36 1.48.68 1.61 1.46 3.2 2.35 4.76z"
        fill="#fff" />
    <path
        d="m177.24 155.33c4.49 1.57 9.16 2.19 13.75 1.93.11-.17.22-.34.33-.52 9.18-15.28 5.62-34.66-7.61-45.78 5.04 12.49 4.36 27.11-3.11 39.54-1.03 1.71-2.15 3.32-3.36 4.84z"
        fill="#fff" />
    <path
        d="m176.17 149.26c8-13.31 8.2-29.12 1.95-42.14-3.94-2.19-8.13-3.56-12.36-4.15 7.59 11.18 8.49 26.19 1.07 38.53-1.05 1.75-2.24 3.37-3.53 4.88 2.15 2.24 4.62 4.25 7.42 5.92.8.48 1.62.92 2.45 1.33 1.07-1.38 2.08-2.84 3-4.38z"
        fill="#fff" />
</svg>